<?xml version="1.0" encoding="utf-8"?>
<!-- Generator: Adobe Illustrator 27.0.0, SVG Export Plug-In . SVG Version: 6.00 Build 0)  -->
<svg version="1.1" id="Capa_1" xmlns="http://www.w3.org/2000/svg" xmlns:xlink="http://www.w3.org/1999/xlink" x="0px" y="0px"
	 width="1034px" height="160px" viewBox="0 0 1034 160" style="enable-background:new 0 0 1034 160;" xml:space="preserve">
<style type="text/css">
	.st0{fill:#D97E37;}
	.st1{fill:#FFFFFF;}
	.st2{fill:#588E3D;}
	.st3{fill:#D97E36;}
	.st4{fill:#598D3C;}
</style>
<g>
	<g>
		<path class="st0" d="M847.6,23.9c3.5,0,6.5,0.4,9.4,1.2c2.9,0.8,5.1,1.8,7.1,3.3c2,1.4,3.7,2.9,4.7,4.7c1,1.8,1.6,3.7,1.6,5.7
			c0,5.9-3.1,10.2-9.4,12.4c3.5,1,6.3,2.9,8.8,5.5c2.2,2.7,3.5,5.5,3.5,8.8c0,2.2-0.6,4.5-1.6,6.5c-1.2,2.2-2.9,4.1-5.1,5.7
			s-5.1,3.1-8.4,4.1c-3.3,1-7.1,1.6-11.4,1.6h-17.7c-1.8,0-3.5-0.4-4.7-1.2c-1.2-0.8-1.8-2-1.8-3.5V28.6c0-1.4,0.6-2.7,1.8-3.5
			c1.2-0.8,2.9-1.2,4.7-1.2H847.6z M835.8,46.8h11.8c3.1,0,5.5-0.6,7.1-1.8c1.6-1.2,2.4-2.9,2.4-4.9c0-1.8-0.8-3.5-2.7-4.7
			c-1.8-1.2-4.1-1.8-6.9-1.8h-11.8V46.8z M835.8,74.3h11c1.8,0,3.7-0.2,5.3-0.8c1.6-0.6,3.1-1.2,4.1-2c1.2-0.8,2-1.8,2.9-2.9
			c0.6-1,1-2.2,1-3.3c0-1.2-0.4-2.2-0.8-3.3c-0.6-1-1.4-2-2.7-2.9c-1.2-0.8-2.4-1.4-4.1-2c-1.6-0.4-3.5-0.8-5.5-0.8h-11v17.9H835.8z
			"/>
	</g>
	<g>
		<path class="st1" d="M344,28.5h-12.1l-1.2,2l0.2,82.4h-18.1v4.9h18.1v9.6h-18.1v4.9h18.1v5c-0.6,7.8-7.1,13.9-15.1,13.9
			c-8.3,0-15.1-6.8-15.1-15.1l-0.3-107h-13.2c-1.3,0-2.4,1.1-2.4,2.4c0,1.3,1.1,2.4,2.4,2.4h8.3l0.3,102.2l0,0
			c0.1,11,9,19.9,20,19.9s20-9,20-20v-10.3l-0.1,0.2l-0.3-92.5h8.4c1.3,0,2.4-1.1,2.4-2.4C346.4,29.6,345.3,28.5,344,28.5z"/>
		<g>
			<g>
				<path class="st2" d="M270.8,56.9c0,0-9.5,38.1,30.2,42.4C301,99.3,318.4,63.4,270.8,56.9z"/>
				<path d="M302.5,101.9l-1.7-0.2c-12.6-1.4-21.8-6.1-27.4-14.1c-9.3-13.3-5.1-30.5-5-31.2l0.5-2.1l2.2,0.3
					c16.4,2.2,27.3,8.2,32.4,17.6c7,13,0,27.6-0.3,28.3L302.5,101.9z M272.8,59.7c-0.7,4.7-1.6,16.2,4.6,25.1
					c4.5,6.4,11.9,10.4,22.1,11.8c1.4-3.8,4.3-13.7-0.3-22.3C295.1,66.8,286.2,61.9,272.8,59.7z"/>
			</g>
			<g>
				<path d="M287.5,76.8c0,0,10,13.3,9.5,22.5h4l3.1-6.3C304.1,92.9,303.1,84.5,287.5,76.8z"/>
				<path d="M301.4,99.9h-5v-0.6c0.4-8.9-9.3-22-9.4-22.1l-1.5-2l2.3,1.1c15.7,7.8,16.9,16.3,17,16.6v0.2L301.4,99.9z M297.6,98.7h3
					l2.8-5.8c-0.2-1.1-2.2-7.9-14.1-14.4C292.1,82.5,297.6,91.5,297.6,98.7z"/>
			</g>
			<g>
				<g>
					<path class="st3" d="M362.6,49.5c0,0-63-11-64.6,49.5C298.1,99,356.5,113.9,362.6,49.5z"/>
					<path d="M312.2,102.9L312.2,102.9c-8.4,0-14.5-1.5-14.7-1.6l-1.9-0.5v-1.9c0.5-20.2,7.7-34.9,21.5-43.7
						c11.5-7.3,25.1-8.9,34.5-8.9c6.7,0,11.3,0.8,11.5,0.8l2.2,0.4l-0.2,2.2C360.7,96,330,102.9,312.2,102.9z M300.6,97
						c2.3,0.4,6.5,1,11.6,1c19.4,0,43.3-8.1,47.8-46.4c-1.9-0.2-4.8-0.4-8.4-0.4C333.3,51.2,302.6,57.2,300.6,97z"/>
				</g>
				<g>
					<path d="M330.4,71.6c0,0-18,4.7-31.5,18l-0.8,9.5l5.7,1C303.8,100.1,310.5,84.5,330.4,71.6z"/>
					<path d="M304.3,101.1l-7.2-1.3l0.9-10.7l0.2-0.2c13.5-13.3,31.7-18.2,31.9-18.2l5.5-1.4l-4.7,3.1c-19.3,12.6-26.2,28-26.2,28.1
						L304.3,101.1z M299.1,98.3l4.2,0.8c1.4-2.8,7.4-14,21.3-24.5c-6.3,2.5-16.5,7.3-24.8,15.5L299.1,98.3z"/>
				</g>
			</g>
		</g>
		<g>
			<g>
				<path class="st1" d="M328.4,9.3c0,3.5-2.8,6.3-6.3,6.3s-6.3-2.8-6.3-6.3s2.8-6.3,6.3-6.3S328.4,5.8,328.4,9.3z"/>
				<path class="st1" d="M322.1,16.5c-4,0-7.2-3.2-7.2-7.2s3.2-7.2,7.2-7.2s7.2,3.2,7.2,7.2C329.3,13.3,326,16.5,322.1,16.5z
					 M322.1,3.9c-3,0-5.4,2.4-5.4,5.4s2.4,5.4,5.4,5.4s5.4-2.4,5.4-5.4C327.4,6.3,325,3.9,322.1,3.9z"/>
			</g>
			<g>
				<path class="st1" d="M310.7,12.5c0,1.8-1.5,3.2-3.2,3.2c-1.8,0-3.3-1.5-3.3-3.2c0-1.8,1.5-3.3,3.3-3.3
					C309.2,9.2,310.7,10.7,310.7,12.5z"/>
				<path class="st1" d="M307.4,16.6c-2.3,0-4.2-1.9-4.2-4.2s1.9-4.2,4.2-4.2c2.3,0,4.2,1.9,4.2,4.2
					C311.6,14.8,309.7,16.6,307.4,16.6z M307.4,10.1c-1.3,0-2.3,1-2.3,2.3s1,2.3,2.3,2.3s2.3-1,2.3-2.3
					C309.8,11.2,308.7,10.1,307.4,10.1z"/>
			</g>
			<g>
				<path class="st1" d="M319.3,22.9c0,2.6-2.1,4.7-4.7,4.7s-4.7-2.1-4.7-4.7s2.1-4.7,4.7-4.7C317.2,18.2,319.3,20.3,319.3,22.9z"/>
				<path class="st1" d="M314.6,28.6c-3.1,0-5.7-2.5-5.7-5.7c0-3.1,2.5-5.7,5.7-5.7c3.1,0,5.7,2.5,5.7,5.7
					C320.3,26,317.7,28.6,314.6,28.6z M314.6,19.1c-2.1,0-3.8,1.7-3.8,3.8s1.7,3.8,3.8,3.8s3.8-1.7,3.8-3.8S316.7,19.1,314.6,19.1z"
					/>
			</g>
		</g>
	</g>
	<g>
		<path class="st4" d="M417.6,68h-26.9l-6.3,12.8c-0.6,1.2-1.4,2-2.4,2.4c-1,0.4-2.2,0.8-3.9,0.8c-1.4,0-3.1-0.4-4.5-1.2
			c-1.4-0.8-2.2-1.8-2.2-3.3c0-0.6,0.2-1.2,0.4-1.8l26.1-51.2c1-2,3.1-3.1,6.1-3.1c1.4,0,2.7,0.2,3.9,0.8c1,0.4,1.8,1.2,2.4,2.2
			l26.1,51c0.2,0.2,0.2,0.6,0.4,0.8c0,0.2,0.2,0.6,0.2,0.8c0,1.4-0.6,2.7-2,3.5c-1.4,0.8-2.9,1.2-4.7,1.2c-1.2,0-2.4-0.2-3.5-0.6
			c-1-0.4-1.8-1.2-2.4-2.4L417.6,68z M395,59.6h18.3l-9.2-17.9L395,59.6z"/>
	</g>
	<g>
		<path class="st4" d="M519.4,48.2c1.8,0,3.5,0.4,4.7,1c1.2,0.8,1.8,1.8,1.8,3.5c0,4.3-1.2,8.4-3.5,12c-2.2,3.7-5.5,6.9-9.4,9.8
			c-3.9,2.9-8.6,4.9-13.9,6.5c-5.3,1.6-11,2.4-16.9,2.4c-6.1,0-11.6-0.8-16.9-2.2c-5.3-1.4-10-3.5-13.9-6.1s-7.1-5.7-9.4-9.2
			c-2.2-3.7-3.5-7.5-3.5-11.8c0-4.3,1.2-8.2,3.5-12c2.2-3.7,5.5-6.9,9.4-9.8c3.9-2.9,8.6-5.1,13.9-6.5c5.3-1.6,11-2.4,16.9-2.4
			c6.1,0,12,0.8,17.5,2.4c5.5,1.6,10.4,3.9,14.3,6.9c0.6,0.6,1.2,1,1.6,1.6c0.4,0.4,0.6,1,0.6,1.8c0,1.4-0.6,2.4-1.6,3.3
			c-1.2,0.8-2.7,1.2-4.7,1.2c-0.8,0-1.8-0.2-2.9-0.4c-1-0.4-1.8-0.8-2.7-1.4c-2.4-1.8-5.5-3.3-9.4-4.3c-3.9-1-8-1.6-12.4-1.6
			c-4.3,0-8.2,0.6-11.8,1.6c-3.7,1.2-6.9,2.7-9.8,4.7c-2.9,2-4.9,4.3-6.5,6.9c-1.6,2.7-2.4,5.3-2.4,8.4c0,2.9,0.8,5.7,2.4,8.2
			c1.6,2.4,3.7,4.5,6.5,6.3c2.7,1.8,5.9,3.1,9.6,4.1c3.7,1,7.7,1.4,12,1.4c3.9,0,7.3-0.4,10.8-1.2c3.5-0.8,6.3-2,9.2-3.7
			c2.7-1.6,4.9-3.5,6.7-5.5c1.8-2,3.1-4.5,3.7-6.9h-30.2c-1.8,0-3.5-0.4-4.7-1c-1.2-0.8-1.8-1.8-1.8-3.3c0-1.4,0.6-2.4,1.8-3.3
			c1.2-0.8,2.9-1.2,4.7-1.2h36.5V48.2z"/>
	</g>
	<g>
		<path class="st4" d="M561.6,23.9c3.9,0,7.3,0.6,10.6,1.6c3.3,1,6.1,2.4,8.4,4.1c2.2,1.6,4.1,3.7,5.5,5.9c1.4,2.2,2,4.5,2,6.9
			c0,3.7-1.4,7.1-4.5,10.2c-2.9,3.1-7.1,5.1-12.8,6.3l14.1,17.9c0.6,1,1,1.8,1,2.7c0,1.2-0.6,2.4-2,3.3c-1.4,0.8-2.9,1.2-4.5,1.2
			c-1.2,0-2.2-0.2-3.3-0.6c-1-0.4-1.8-1-2.7-2L557.5,61h-7.1v18.3c0,1.4-0.6,2.7-1.8,3.5c-1.2,0.8-2.9,1.2-4.9,1.2
			c-1.8,0-3.5-0.4-4.7-1.2c-1.2-0.8-1.8-2-1.8-3.5V28.6c0-1.4,0.6-2.7,1.8-3.5c1.2-0.8,2.9-1.2,4.7-1.2H561.6z M550.4,51.6h11
			c1.8,0,3.5-0.2,5.3-0.8c1.6-0.6,3.1-1.2,4.3-2s2-1.8,2.9-2.9c0.6-1,1-2.2,1-3.5c0-1.2-0.4-2.2-1-3.3c-0.6-1-1.6-2-2.9-2.9
			c-1.2-0.8-2.7-1.4-4.3-2c-1.6-0.6-3.5-0.8-5.3-0.8h-11V51.6z"/>
	</g>
	<g>
		<path class="st4" d="M595.6,54.3c0-4.3,1.2-8.2,3.5-12c2.2-3.7,5.3-6.9,9.4-9.8c3.9-2.9,8.6-5.1,13.9-6.5c5.3-1.6,11-2.4,16.9-2.4
			c6.1,0,11.6,0.8,16.9,2.4c5.3,1.6,10,3.9,13.9,6.5c3.9,2.9,7.1,6.1,9.4,9.8c2.2,3.7,3.5,7.7,3.5,12s-1.2,8.4-3.5,12
			c-2.2,3.7-5.5,6.9-9.4,9.8c-3.9,2.9-8.6,4.9-13.9,6.5c-5.3,1.6-11,2.4-16.9,2.4c-6.1,0-11.6-0.8-16.9-2.4
			c-5.3-1.6-10-3.7-13.9-6.5c-3.9-2.9-7.1-5.9-9.4-9.8C596.6,62.7,595.6,58.6,595.6,54.3z M608.7,54.3c0,2.9,0.8,5.7,2.2,8.4
			c1.6,2.7,3.7,4.9,6.5,6.7c2.7,1.8,5.9,3.5,9.6,4.7c3.7,1.2,7.7,1.6,12,1.6c4.3,0,8.2-0.6,11.8-1.6c3.7-1.2,6.9-2.7,9.8-4.7
			c2.9-1.8,4.9-4.3,6.5-6.7c1.6-2.7,2.4-5.3,2.4-8.4c0-2.9-0.8-5.7-2.4-8.4s-3.9-4.9-6.5-6.9c-2.9-2-6.1-3.5-9.8-4.7
			c-3.7-1.2-7.7-1.6-11.8-1.6c-4.3,0-8.2,0.6-12,1.6c-3.7,1.2-6.9,2.7-9.6,4.7s-4.9,4.3-6.5,6.9C609.5,48.6,608.7,51.4,608.7,54.3z"
			/>
	</g>
	<g>
		<path class="st0" d="M707.3,74.3h26.5c2,0,3.5,0.4,4.7,1.2c1.2,0.8,1.8,2,1.8,3.5s-0.6,2.7-1.8,3.5c-1.2,0.8-2.9,1.2-4.7,1.2h-33
			c-2,0-3.9-0.4-4.9-1.2c-1.2-0.8-1.6-2-1.6-3.5V28.2c0-1.4,0.6-2.7,1.8-3.5c1.2-0.8,2.9-1.2,4.7-1.2c2,0,3.7,0.4,4.9,1.2
			c1.2,0.8,1.8,2,1.8,3.5v46.1H707.3z"/>
	</g>
	<g>
		<path class="st0" d="M794.4,68h-26.9l-6.3,12.8c-0.6,1.2-1.4,2-2.4,2.4c-1,0.4-2.2,0.8-3.9,0.8c-1.4,0-3.1-0.4-4.5-1.2
			c-1.4-0.8-2.2-1.8-2.2-3.3c0-0.6,0.2-1.2,0.4-1.8l26.1-51.2c1-2,3.1-3.1,6.1-3.1c1.4,0,2.7,0.2,3.9,0.8c1,0.4,1.8,1.2,2.4,2.2
			l26.1,51c0.2,0.2,0.2,0.6,0.4,0.8c0,0.2,0.2,0.6,0.2,0.8c0,1.4-0.6,2.7-2,3.5c-1.4,0.8-2.9,1.2-4.7,1.2c-1.2,0-2.4-0.2-3.5-0.6
			c-1-0.4-1.8-1.2-2.4-2.4L794.4,68z M771.8,59.6h18.3l-9.2-17.9L771.8,59.6z"/>
	</g>
	<g>
		<path class="st1" d="M397.9,116.7c-0.2-0.4-0.6-0.6-0.8-1c-0.2-0.4-0.6-0.6-1-0.8c-0.4-0.2-0.6-0.6-1-0.8
			c-0.4-0.2-0.8-0.4-1.2-0.6c-0.4-0.2-0.8-0.4-1.2-0.6c-0.4-0.2-0.8-0.4-1.4-0.4c-0.4-0.2-0.8-0.2-1.4-0.4c-0.4,0-0.8-0.2-1.4-0.2
			h-0.2h-0.2h-0.2c-0.6,0-1.2,0.2-1.8,0.2c-0.6,0.2-1.2,0.4-1.8,0.6c-0.8,0.4-1.4,0.6-2,1.2c-0.6,0.4-1.4,1-2,1.6s-1.2,1.2-1.6,1.8
			c-0.4,0.6-0.8,1.4-1.2,2c-0.2,0.6-0.6,1.4-0.6,2.2c-0.2,0.8-0.2,1.6-0.2,2.2c0,0.8,0,1.6,0.2,2.4c0.2,0.8,0.4,1.6,0.8,2.2
			c0.4,0.8,0.8,1.4,1.2,2c0.4,0.6,1,1.2,1.6,1.8c0.6,0.6,1.2,1.2,2,1.6c0.6,0.4,1.4,0.8,2.2,1.2c0.6,0.2,1.2,0.4,2,0.6
			c0.6,0.2,1.4,0.2,2,0.2c0.4,0,0.8,0,1.2-0.2c0.4,0,0.8-0.2,1-0.2c0.4-0.2,1-0.2,1.4-0.4c0.4-0.2,1-0.4,1.4-0.6
			c0.4-0.2,0.8-0.4,1.4-0.8c0.4-0.2,0.8-0.6,1.2-0.8c0.4-0.4,0.8-0.6,1-1c0.4-0.4,0.6-0.8,1-1.2h3.3h1.6c-0.4,0.6-0.6,1.2-1,1.8
			c-0.4,0.6-0.8,1-1.2,1.6c-0.4,0.4-1,1-1.6,1.4c-0.6,0.4-1.2,0.8-1.8,1.2c-0.6,0.4-1.2,0.6-1.8,1c-0.6,0.2-1.2,0.4-2,0.6
			c-0.6,0.2-1.4,0.2-2,0.4c-0.6,0-1.4,0.2-2,0.2h-1.6c-1,0-2.2-0.2-3.3-0.2c-1-0.2-2-0.4-3.1-0.8c-1-0.4-1.8-0.8-2.7-1.4
			c-0.8-0.6-1.6-1.2-2.4-1.8c-0.8-0.8-1.4-1.4-2-2.2c-0.6-0.8-1-1.6-1.4-2.7c-0.4-0.8-0.6-1.8-0.8-2.9c-0.2-1-0.2-2-0.2-3.1
			s0-2,0.2-3.1s0.4-1.8,0.8-2.9c0.4-0.8,0.8-1.6,1.4-2.4c0.6-0.8,1.2-1.6,2-2.2c0.8-0.8,1.6-1.4,2.4-2c0.8-0.6,1.6-1,2.7-1.4
			c1-0.4,1.8-0.6,2.9-0.8c1-0.2,2-0.2,3.1-0.2h1.6c0.2,0,0.4,0,0.6,0c0.2,0,0.4,0,0.6,0c0.2,0,0.4,0,0.6,0c0.2,0,0.4,0,0.6,0
			c0.4,0,0.8,0,1.2,0.2c0.4,0,0.8,0.2,1.2,0.2c0.4,0.2,0.8,0.2,1,0.4c0.4,0.2,0.6,0.2,1,0.4c0.4,0.2,0.6,0.4,1,0.6
			c0.4,0.2,0.6,0.4,1,0.6l0.2,0.2l0.2,0.2l0.2,0.2l0.2,0.2l0.2,0.2l0.2,0.2l0,0c0,0,0,0,0.2,0c0,0,0,0,0.2,0l0,0
			c0.2,0.2,0.4,0.2,0.4,0.4c0.2,0.2,0.4,0.2,0.4,0.4c0.2,0.2,0.4,0.4,0.4,0.4c0.2,0.2,0.4,0.4,0.4,0.6c0,0,0,0.2,0.2,0.2
			c0,0,0,0,0.2,0.2c0,0,0,0,0.2,0.2c0,0,0,0,0.2,0.2l0.2,0.2l0.2,0.2c0,0.2,0.2,0.2,0.2,0.2l0.2,0.2c0,0,0,0,0,0.2c0,0,0,0,0,0.2
			c0,0,0,0,0,0.2c0,0,0,0,0,0.2v0.2v0.2v0.2v0.2h-1.6l0,0h-3.5V116.7z"/>
		<path class="st1" d="M472.9,108.9c1,0.2,2,0.4,2.9,0.8c1,0.4,1.8,0.8,2.7,1.4c0.8,0.6,1.6,1.2,2.4,1.8c0.8,0.8,1.4,1.4,2,2.2
			c0.6,0.8,1,1.6,1.4,2.4c0.4,0.8,0.6,1.8,0.8,2.9s0.4,2,0.4,3.1s-0.2,2-0.4,3.1s-0.4,1.8-0.8,2.9c-0.4,0.8-0.8,1.8-1.4,2.7
			c-0.6,0.8-1.2,1.6-2,2.2c-0.8,0.8-1.6,1.4-2.4,1.8c-0.8,0.6-1.8,1-2.7,1.4c-1,0.4-1.8,0.6-2.9,0.8c-1,0.2-2,0.2-3.3,0.2H468
			c-1,0-2-0.2-3.1-0.2c-1-0.2-2-0.4-2.9-0.8c-1-0.4-1.8-0.8-2.7-1.4c-0.8-0.6-1.6-1.2-2.4-1.8c-0.8-0.6-1.4-1.4-2-2.2
			c-0.6-0.8-1-1.6-1.4-2.7c-0.4-0.8-0.6-1.8-0.8-2.9s-0.2-2-0.2-3.1s0-2,0.2-3.1s0.4-1.8,0.8-2.9c0.4-1,0.8-1.8,1.4-2.7
			c0.6-0.8,1.2-1.6,2-2.2c0.8-0.8,1.6-1.4,2.4-1.8c0.8-0.6,1.8-1,2.7-1.4c1-0.4,1.8-0.6,2.9-0.8c1-0.2,2-0.2,3.1-0.2l0,0h1.6
			C470.8,108.5,471.9,108.7,472.9,108.9z M470.8,135.8c0.8-0.2,1.6-0.4,2.2-0.6c0.8-0.2,1.4-0.6,2.2-1.2c0.6-0.4,1.4-1,2-1.6
			c0.6-0.6,1.2-1.2,1.6-1.8c0.4-0.6,0.8-1.4,1.2-2c0.2-0.8,0.6-1.4,0.6-2.2c0.2-0.8,0.2-1.6,0.2-2.4c0-0.8,0-1.6-0.2-2.4
			c-0.2-0.8-0.4-1.4-0.8-2.2c-0.4-0.6-0.8-1.4-1.2-2c-0.4-0.6-1-1.2-1.6-1.8s-1.4-1.2-2-1.6c-0.6-0.4-1.4-0.8-2.2-1
			c-0.6-0.2-1.2-0.4-2-0.6c-0.6-0.2-1.4-0.2-2-0.2c-0.8,0-1.4,0.2-2.2,0.2c-0.6,0.2-1.4,0.4-2,0.6c-0.8,0.4-1.4,0.6-2.2,1.2
			c-0.6,0.4-1.4,1-2,1.6s-1.2,1.2-1.6,1.8c-0.4,0.6-0.8,1.4-1.2,2c-0.4,0.8-0.6,1.4-0.8,2.2c-0.2,0.8-0.2,1.6-0.2,2.4
			c0,0.8,0,1.6,0.2,2.4c0.2,0.8,0.4,1.6,0.8,2.2c0.4,0.6,0.8,1.4,1.2,2s1,1.2,1.6,1.8c0.6,0.6,1.4,1,2,1.6c0.6,0.4,1.4,0.8,2.2,1.2
			c0.6,0.2,1,0.4,1.6,0.6c0.6,0.2,1.2,0.2,1.6,0.2C469.2,136.1,470,136.1,470.8,135.8z"/>
		<path class="st1" d="M536.5,109.1h1.6h4.7l10.2,23l10.2-23h1.6h4.7v29.2h-1.6h-3.1v-22.2l-9.8,22.2h-1.6h-2.7l-9.8-22.2v22.2h-1.6
			h-3.1v-29.2H536.5z"/>
		<path class="st1" d="M621.3,109.1h1.6h8c0.4,0,0.6,0,1,0s0.6,0,1,0s0.6,0,1,0c0.4,0,0.6,0,1,0s0.6,0,1,0.2c0.4,0,0.6,0.2,1,0.4
			c0.4,0.2,0.6,0.2,1,0.4c0.4,0.2,0.6,0.4,1,0.4c0.4,0.2,0.6,0.4,1,0.6c0.2,0.2,0.6,0.4,0.8,0.8c0.2,0.2,0.4,0.6,0.6,0.8
			c0.2,0.2,0.4,0.6,0.6,0.8c0.2,0.4,0.4,0.6,0.4,1c0.2,0.4,0.2,0.6,0.4,1c0,0.4,0.2,0.6,0.2,1c0,0.4,0,0.8,0,1c0,0.4,0,0.6,0,1
			c0,0.4,0,0.6-0.2,1c0,0.4-0.2,0.6-0.2,1c-0.2,0.4-0.2,0.6-0.4,0.8c-0.2,0.2-0.2,0.6-0.4,0.8c-0.2,0.2-0.4,0.6-0.6,0.8
			c-0.2,0.2-0.4,0.4-0.6,0.6c-0.2,0.2-0.6,0.4-0.8,0.6c-0.2,0.2-0.6,0.4-1,0.6c-0.4,0.2-0.6,0.4-1,0.4c-0.2,0-0.4,0.2-0.4,0.2
			c-0.2,0-0.4,0.2-0.4,0.2c-0.2,0-0.4,0-0.4,0.2c-0.2,0-0.4,0-0.4,0c-0.2,0-0.4,0-0.4,0c-0.2,0-0.4,0-0.4,0c-0.2,0-0.4,0-0.6,0
			c-0.2,0-0.4,0-0.4,0c-0.4,0-0.6,0-1,0s-0.6,0-1,0h-1.6h-4.1v11.8H625h-3.1v-28.7H621.3z M631.3,123.8L631.3,123.8L631.3,123.8
			c0.2,0,0.2,0,0.2,0l0,0l0,0c0,0,0,0,0.2,0l0,0l0,0c0.2,0,0.2,0,0.4,0c0.2,0,0.2,0,0.4,0c0.2,0,0.2,0,0.4,0c0.2,0,0.2,0,0.4,0
			c0.2,0,0.2,0,0.4,0c0.2,0,0.2,0,0.4-0.2c0.2,0,0.2,0,0.4-0.2c0.2,0,0.2,0,0.4-0.2c0.2,0,0.2-0.2,0.4-0.2c0.2,0,0.2-0.2,0.4-0.2
			c0.2-0.2,0.4-0.2,0.6-0.4c0.2-0.2,0.4-0.2,0.4-0.4c0.2-0.2,0.4-0.4,0.4-0.6c0.2-0.2,0.2-0.4,0.4-0.6c0.2-0.2,0.2-0.4,0.2-0.6
			c0-0.2,0.2-0.4,0.2-0.6c0-0.2,0.2-0.4,0.2-0.6c0-0.2,0-0.4,0.2-0.6l0,0l0,0l0,0l0,0c0-0.4,0-0.6,0-1c0-0.2-0.2-0.6-0.2-0.8
			s-0.2-0.6-0.4-0.8c-0.2-0.2-0.2-0.4-0.4-0.8c-0.2-0.2-0.4-0.4-0.6-0.6c-0.2-0.2-0.4-0.4-0.6-0.6c-0.2-0.2-0.4-0.4-0.8-0.6
			c-0.2-0.2-0.6-0.2-0.8-0.4h-0.2h-0.2H634h-0.2h-0.2h-0.2h-0.2h-0.2c0,0,0,0-0.2,0c0,0,0,0-0.2,0c0,0,0,0-0.2,0c0,0,0,0-0.2,0
			c0,0,0,0-0.2,0c0,0,0,0-0.2,0c0,0,0,0-0.2,0c0,0,0,0-0.2,0h-0.2c0,0,0,0-0.2,0c0,0,0,0-0.2,0c0,0,0,0-0.2,0h-0.2h-0.2h-0.2h-0.2
			h-0.2h-0.2h-0.2h-0.2h-0.2h-0.2h-0.2h0.8h-0.2h-0.2h-0.2h-0.2H626v12h5.3V123.8z"/>
		<path class="st1" d="M703.3,109.1h1.6h3.3l13,29.2h-1.6h-3.3l-4.3-9.8h-12.4l-4.3,9.8h-1.6h-3.5L703.3,109.1z M710.8,125.9
			l-4.9-11.6l-5.1,11.6H710.8z"/>
		<path class="st1" d="M770.5,109.1h1.6h4.1l15.3,21.8v-21.8h1.6h3.1v29.2h-1.6h-3.1l-16.3-23.4v23.4h-1.6h-3.1V109.1z"/>
		<path class="st1" d="M855.6,128.5l-10.4-19.4h1.6h3.3l8,14.9l8-14.9h1.6h3.3l-10.4,19.4v9.8h-1.6h-3.1v-9.8H855.6z"/>
	</g>
</g>
</svg>
