<?xml version="1.0" encoding="utf-8"?>
<!-- Generator: Adobe Illustrator 27.0.0, SVG Export Plug-In . SVG Version: 6.00 Build 0)  -->
<svg version="1.1" id="Capa_1" xmlns="http://www.w3.org/2000/svg" xmlns:xlink="http://www.w3.org/1999/xlink" x="0px" y="0px"
	 width="1034px" height="160px" viewBox="0 0 1034 160" style="enable-background:new 0 0 1034 160;" xml:space="preserve">
<style type="text/css">
	.st0{fill:#3F912E;}
	.st1{fill:#EA7919;}
</style>
<g>
	<g>
		<g>
			<path class="st0" d="M414.3,39.6c0,0-23.9,96,76.2,106.8C490.5,146.4,534.4,56,414.3,39.6z"/>
			<path d="M494.1,153.1l-4.4-0.5c-31.6-3.3-54.9-15.4-69.1-35.7c-23.4-33.6-13.1-77-12.6-78.8l1.3-5.4l5.4,0.8
				c41.3,5.6,68.8,20.5,81.6,44.4c17.7,32.9,0,69.8-0.8,71.4L494.1,153.1z M419.1,46.5c-1.8,11.8-4.1,40.8,11.8,63.4
				c11.3,16.2,30,26.2,55.7,29.8c3.6-9.5,10.8-34.7-0.8-56.2C475.6,64.5,453,52.2,419.1,46.5z"/>
		</g>
		<g>
			<path d="M456.4,89.7c0,0,25.2,33.6,24.1,56.7h10.3l7.7-15.9C498.2,130.5,495.7,109.2,456.4,89.7z"/>
			<path d="M491.3,147.9h-12.8v-1.5c1-22.3-23.4-55.5-23.6-55.7l-3.9-5.1l5.9,2.8c39.5,19.5,42.6,41.1,42.9,41.8v0.5L491.3,147.9z
				 M481.8,144.9h7.7l7.2-14.6c-0.5-2.8-5.4-19.8-35.4-36.2C467.9,104,481.8,126.9,481.8,144.9z"/>
		</g>
		<g>
			<g>
				<path class="st1" d="M645.8,20.9c0,0-158.9-27.7-162.8,124.8C483.1,145.6,630.4,183.4,645.8,20.9z"/>
				<path d="M518.5,155.6L518.5,155.6c-21.3,0-36.5-3.9-37.2-4.1l-4.9-1.3v-4.9c1.3-51.1,19.5-88.1,54.2-110.4
					c29-18.5,63.2-22.3,87-22.3c16.9,0,28.5,2.1,29,2.1l5.6,1l-0.5,5.6C641,138.2,563.7,155.6,518.5,155.6z M489.2,140.7
					c5.9,1,16.4,2.6,29.3,2.6c49,0,109.1-20.5,120.7-117.1c-4.6-0.5-12.1-1-21.3-1C571.6,25.2,494.4,40.4,489.2,140.7z"/>
			</g>
			<g>
				<path d="M564.5,76.6c0,0-45.4,11.8-79.3,45.4l-2.1,23.9l14.4,2.6C497.5,148.4,514.4,109.2,564.5,76.6z"/>
				<path d="M498.7,151.3l-18.2-3.3l2.3-27l0.5-0.5c34.1-33.6,80.1-46,80.4-46l13.9-3.6l-12.1,7.7c-48.8,31.8-66,70.6-66.2,70.9
					L498.7,151.3z M485.4,144.1l10.5,1.8c3.3-7.2,18.5-35.2,53.9-61.9c-15.9,6.2-41.6,18.5-62.6,39L485.4,144.1z"/>
			</g>
		</g>
	</g>
</g>
</svg>
