<?xml version="1.0" encoding="utf-8"?>
<!-- Generator: Adobe Illustrator 27.0.0, SVG Export Plug-In . SVG Version: 6.00 Build 0)  -->
<svg version="1.1" id="Capa_1" xmlns="http://www.w3.org/2000/svg" xmlns:xlink="http://www.w3.org/1999/xlink" x="0px" y="0px"
	 width="233.7px" height="96px" viewBox="0 0 233.7 96" style="enable-background:new 0 0 233.7 96;" xml:space="preserve">
<style type="text/css">
	.st0{fill:#ED6A1F;}
	.st1{fill:#FFFFFF;}
	.st2{fill:#359138;}
	.st3{fill:#1A1413;}
	.st4{fill:#ED6B1E;}
	.st5{fill:#399038;}
</style>
<g>
	<g>
		<path class="st0" d="M209.7,29.6c1,0,1.9,0.1,2.8,0.4c0.8,0.2,1.5,0.6,2.1,0.9c0.6,0.4,1.1,0.9,1.4,1.4c0.3,0.5,0.5,1.1,0.5,1.7
			c0,1.8-0.9,3-2.8,3.7c1,0.3,1.9,0.9,2.6,1.6c0.7,0.8,1,1.6,1,2.6c0,0.7-0.2,1.3-0.5,2c-0.3,0.6-0.8,1.2-1.5,1.7
			c-0.7,0.5-1.5,0.9-2.5,1.2c-1,0.3-2.1,0.5-3.4,0.5h-5.3c-0.5,0-1-0.1-1.4-0.4c-0.4-0.3-0.6-0.6-0.6-1V31c0-0.4,0.2-0.8,0.6-1
			c0.4-0.3,0.8-0.4,1.4-0.4H209.7z M206.1,36.4h3.5c0.9,0,1.6-0.2,2.1-0.6c0.5-0.4,0.7-0.9,0.7-1.4c0-0.6-0.3-1-0.8-1.4
			c-0.5-0.4-1.2-0.5-2.1-0.5h-3.5V36.4z M206.1,44.6h3.3c0.6,0,1.1-0.1,1.6-0.2c0.5-0.2,0.9-0.4,1.2-0.6c0.4-0.3,0.6-0.5,0.8-0.9
			c0.2-0.3,0.3-0.7,0.3-1c0-0.3-0.1-0.7-0.3-1c-0.2-0.3-0.4-0.6-0.8-0.9c-0.3-0.3-0.8-0.5-1.2-0.6c-0.5-0.1-1-0.2-1.6-0.2h-3.3V44.6
			z"/>
	</g>
	<g>
		<path class="st1" d="M53.8,18.7h-7.3l-0.7,1.2l0.1,49.9H35v3h11l0,5.8H35v3h11l0,3c-0.4,4.7-4.3,8.5-9.1,8.5
			c-5.1,0-9.2-4.1-9.2-9.2l-0.2-64.9h-8c-0.8,0-1.5,0.7-1.5,1.5c0,0.8,0.7,1.5,1.5,1.5h5l0.2,62l0,0c0,6.7,5.5,12.1,12.1,12.1
			c6.7,0,12.1-5.4,12.1-12.1v-6.3l0,0.1l-0.2-56.1h5.1c0.8,0,1.5-0.7,1.5-1.5C55.3,19.4,54.7,18.7,53.8,18.7z"/>
		<g>
			<g>
				<path class="st2" d="M9.5,35.9c0,0-5.7,23.1,18.3,25.7C27.8,61.6,38.4,39.9,9.5,35.9z"/>
				<path class="st3" d="M28.7,63.2l-1-0.1c-7.6-0.8-13.2-3.7-16.6-8.6C5.5,46.5,8,36,8.1,35.6l0.3-1.3l1.3,0.2
					c9.9,1.4,16.5,4.9,19.6,10.7c4.2,7.9,0,16.8-0.2,17.1L28.7,63.2z M10.7,37.6c-0.4,2.9-1,9.8,2.8,15.2c2.7,3.9,7.2,6.3,13.4,7.2
					c0.9-2.3,2.6-8.3-0.2-13.5C24.2,41.9,18.9,38.9,10.7,37.6z"/>
			</g>
			<g>
				<path class="st3" d="M19.6,48c0,0,6,8.1,5.8,13.6h2.4l1.9-3.8C29.7,57.8,29.1,52.6,19.6,48z"/>
				<path class="st3" d="M28.1,62H25l0-0.4c0.3-5.4-5.6-13.3-5.7-13.4l-0.9-1.2l1.4,0.7c9.5,4.7,10.3,9.9,10.3,10.1l0,0.1L28.1,62z
					 M25.8,61.2h1.8l1.7-3.5C29.2,57,28,52.9,20.8,49C22.4,51.4,25.8,56.9,25.8,61.2z"/>
			</g>
			<g>
				<g>
					<path class="st4" d="M65.2,31.4c0,0-38.2-6.7-39.1,30C26,61.4,61.5,70.5,65.2,31.4z"/>
					<path class="st3" d="M34.6,63.8C34.6,63.8,34.6,63.8,34.6,63.8c-5.1,0-8.8-0.9-8.9-1l-1.1-0.3l0-1.2c0.3-12.3,4.7-21.2,13-26.5
						c6.9-4.4,15.2-5.4,20.9-5.4c4.1,0,6.9,0.5,7,0.5l1.3,0.2l-0.1,1.4C64,59.6,45.4,63.8,34.6,63.8z M27.5,60.2
						c1.4,0.3,3.9,0.6,7,0.6c11.8,0,26.2-4.9,29-28.1c-1.1-0.1-2.9-0.3-5.1-0.3C47.3,32.5,28.8,36.1,27.5,60.2z"/>
				</g>
				<g>
					<path class="st3" d="M45.6,44.8c0,0-10.9,2.8-19.1,10.9L26,61.5l3.5,0.6C29.5,62.1,33.6,52.6,45.6,44.8z"/>
					<path class="st3" d="M29.8,62.7l-4.4-0.8l0.5-6.5l0.1-0.1c8.2-8.1,19.2-11,19.3-11l3.3-0.9l-2.9,1.9C34.2,52.9,30,62.2,30,62.3
						L29.8,62.7z M26.6,61l2.5,0.5c0.8-1.7,4.5-8.5,12.9-14.9c-3.8,1.5-10,4.4-15,9.4L26.6,61z"/>
				</g>
			</g>
		</g>
		<g>
			<g>
				<path class="st1" d="M44.4,7.1c0,2.1-1.7,3.8-3.8,3.8c-2.1,0-3.8-1.7-3.8-3.8c0-2.1,1.7-3.8,3.8-3.8C42.7,3.3,44.4,5,44.4,7.1z"
					/>
				<path class="st1" d="M40.6,11.4c-2.4,0-4.4-2-4.4-4.4c0-2.4,2-4.4,4.4-4.4c2.4,0,4.4,2,4.4,4.4C44.9,9.5,43,11.4,40.6,11.4z
					 M40.6,3.8c-1.8,0-3.3,1.5-3.3,3.3c0,1.8,1.5,3.3,3.3,3.3c1.8,0,3.3-1.5,3.3-3.3C43.8,5.3,42.4,3.8,40.6,3.8z"/>
			</g>
			<g>
				<path class="st1" d="M33.7,9c0,1.1-0.9,2-2,2c-1.1,0-2-0.9-2-2c0-1.1,0.9-2,2-2C32.8,7,33.7,7.9,33.7,9z"/>
				<path class="st1" d="M31.7,11.5c-1.4,0-2.5-1.1-2.5-2.5c0-1.4,1.1-2.5,2.5-2.5c1.4,0,2.5,1.1,2.5,2.5
					C34.2,10.4,33.1,11.5,31.7,11.5z M31.7,7.6c-0.8,0-1.4,0.6-1.4,1.4c0,0.8,0.6,1.4,1.4,1.4c0.8,0,1.4-0.6,1.4-1.4
					C33.1,8.2,32.5,7.6,31.7,7.6z"/>
			</g>
			<g>
				<path class="st1" d="M38.9,15.3c0,1.6-1.3,2.9-2.9,2.9c-1.6,0-2.9-1.3-2.9-2.9c0-1.6,1.3-2.9,2.9-2.9
					C37.6,12.4,38.9,13.7,38.9,15.3z"/>
				<path class="st1" d="M36,18.7c-1.9,0-3.4-1.5-3.4-3.4c0-1.9,1.5-3.4,3.4-3.4c1.9,0,3.4,1.5,3.4,3.4C39.5,17.2,37.9,18.7,36,18.7
					z M36,13c-1.3,0-2.3,1-2.3,2.3c0,1.3,1,2.3,2.3,2.3s2.3-1,2.3-2.3C38.4,14,37.3,13,36,13z"/>
			</g>
		</g>
	</g>
	<g>
		<path class="st5" d="M81.9,42.7h-8l-1.9,3.8c-0.2,0.3-0.4,0.6-0.7,0.7c-0.3,0.1-0.7,0.2-1.1,0.2c-0.5,0-0.9-0.1-1.3-0.3
			c-0.4-0.2-0.6-0.6-0.6-1c0-0.2,0-0.4,0.1-0.5L76,30.4c0.3-0.6,0.9-0.9,1.8-0.9c0.4,0,0.8,0.1,1.1,0.2c0.3,0.1,0.6,0.4,0.7,0.7
			l7.8,15.1c0,0.1,0.1,0.2,0.1,0.2c0,0.1,0,0.2,0,0.3c0,0.4-0.2,0.8-0.6,1c-0.4,0.3-0.9,0.4-1.4,0.4c-0.4,0-0.7-0.1-1.1-0.2
			c-0.3-0.1-0.6-0.4-0.7-0.7L81.9,42.7z M75.1,40.2h5.4l-2.7-5.3L75.1,40.2z"/>
	</g>
	<g>
		<path class="st5" d="M112.1,36.9c0.6,0,1,0.1,1.4,0.3c0.4,0.2,0.5,0.6,0.5,1c0,1.3-0.3,2.5-1,3.6c-0.7,1.1-1.6,2.1-2.8,2.9
			c-1.2,0.8-2.6,1.5-4.1,2c-1.6,0.5-3.3,0.7-5,0.7c-1.8,0-3.5-0.2-5-0.6c-1.6-0.4-2.9-1-4.1-1.8c-1.2-0.8-2.1-1.7-2.8-2.8
			c-0.7-1.1-1-2.2-1-3.5c0-1.3,0.3-2.4,1-3.6c0.7-1.1,1.6-2.1,2.8-2.9c1.2-0.8,2.6-1.5,4.1-2c1.6-0.5,3.3-0.7,5-0.7
			c1.8,0,3.6,0.2,5.2,0.7c1.7,0.5,3.1,1.2,4.2,2c0.2,0.2,0.4,0.3,0.5,0.5c0.1,0.1,0.2,0.3,0.2,0.5c0,0.4-0.2,0.7-0.5,1
			c-0.3,0.2-0.8,0.4-1.4,0.4c-0.3,0-0.5,0-0.8-0.1c-0.3-0.1-0.6-0.2-0.8-0.4c-0.7-0.5-1.7-1-2.8-1.3c-1.1-0.3-2.4-0.5-3.7-0.5
			c-1.2,0-2.4,0.2-3.5,0.5c-1.1,0.3-2.1,0.8-2.9,1.4c-0.8,0.6-1.5,1.3-2,2c-0.5,0.8-0.7,1.6-0.7,2.5c0,0.9,0.2,1.7,0.7,2.4
			c0.5,0.7,1.1,1.4,1.9,1.9c0.8,0.5,1.8,0.9,2.9,1.2c1.1,0.3,2.3,0.4,3.6,0.4c1.1,0,2.2-0.1,3.2-0.4c1-0.3,1.9-0.6,2.7-1.1
			c0.8-0.5,1.5-1,2-1.6c0.5-0.6,0.9-1.3,1.1-2.1h-8.9c-0.5,0-1-0.1-1.4-0.3c-0.4-0.2-0.6-0.5-0.6-1c0-0.4,0.2-0.7,0.6-0.9
			c0.4-0.2,0.8-0.3,1.4-0.3H112.1z"/>
	</g>
	<g>
		<path class="st5" d="M124.6,29.6c1.1,0,2.2,0.2,3.1,0.5c1,0.3,1.8,0.7,2.5,1.2c0.7,0.5,1.2,1.1,1.6,1.8c0.4,0.7,0.6,1.3,0.6,2
			c0,1.1-0.4,2.1-1.3,3c-0.9,0.9-2.1,1.5-3.8,1.9l4.2,5.4c0.2,0.3,0.3,0.6,0.3,0.8c0,0.4-0.2,0.7-0.6,1c-0.4,0.3-0.8,0.4-1.3,0.4
			c-0.4,0-0.7-0.1-1-0.2c-0.3-0.1-0.6-0.3-0.8-0.6l-4.7-6.1h-2.1v5.4c0,0.4-0.2,0.8-0.5,1c-0.4,0.3-0.8,0.4-1.4,0.4
			c-0.5,0-1-0.1-1.4-0.4c-0.4-0.3-0.6-0.6-0.6-1V31c0-0.4,0.2-0.8,0.6-1c0.4-0.3,0.8-0.4,1.4-0.4H124.6z M121.3,37.8h3.3
			c0.5,0,1.1-0.1,1.5-0.2c0.5-0.2,0.9-0.4,1.3-0.6c0.4-0.3,0.6-0.5,0.8-0.9c0.2-0.3,0.3-0.7,0.3-1c0-0.3-0.1-0.7-0.3-1
			c-0.2-0.3-0.5-0.6-0.8-0.9c-0.4-0.2-0.8-0.4-1.3-0.6c-0.5-0.2-1-0.2-1.5-0.2h-3.3V37.8z"/>
	</g>
	<g>
		<path class="st5" d="M134.7,38.7c0-1.3,0.3-2.4,1-3.6c0.7-1.1,1.6-2.1,2.8-2.9c1.2-0.8,2.5-1.5,4.1-2c1.6-0.5,3.3-0.7,5-0.7
			c1.8,0,3.5,0.2,5,0.7c1.6,0.5,3,1.1,4.1,2c1.2,0.8,2.1,1.8,2.8,2.9c0.7,1.1,1,2.3,1,3.6c0,1.3-0.3,2.5-1,3.6
			c-0.7,1.1-1.6,2.1-2.8,2.9c-1.2,0.8-2.6,1.5-4.1,1.9c-1.6,0.5-3.3,0.7-5,0.7c-1.8,0-3.5-0.2-5-0.7c-1.6-0.5-2.9-1.1-4.1-1.9
			c-1.2-0.8-2.1-1.8-2.8-2.9C135.1,41.1,134.7,39.9,134.7,38.7z M138.7,38.7c0,0.9,0.2,1.7,0.7,2.5c0.5,0.8,1.1,1.4,1.9,2
			c0.8,0.6,1.8,1,2.9,1.4c1.1,0.3,2.3,0.5,3.6,0.5c1.2,0,2.4-0.2,3.5-0.5c1.1-0.3,2.1-0.8,2.9-1.4c0.8-0.6,1.5-1.2,2-2
			c0.5-0.8,0.7-1.6,0.7-2.5c0-0.9-0.2-1.7-0.7-2.5c-0.5-0.8-1.1-1.5-2-2c-0.8-0.6-1.8-1-2.9-1.4c-1.1-0.3-2.3-0.5-3.5-0.5
			c-1.3,0-2.5,0.2-3.6,0.5c-1.1,0.3-2.1,0.8-2.9,1.4c-0.8,0.6-1.5,1.3-1.9,2C138.9,36.9,138.7,37.8,138.7,38.7z"/>
	</g>
	<g>
		<path class="st0" d="M168,44.6h7.9c0.6,0,1.1,0.1,1.4,0.4c0.4,0.3,0.5,0.6,0.5,1c0,0.4-0.2,0.8-0.5,1c-0.4,0.3-0.8,0.4-1.4,0.4
			H166c-0.6,0-1.1-0.1-1.5-0.4c-0.3-0.3-0.5-0.6-0.5-1v-15c0-0.4,0.2-0.8,0.6-1c0.4-0.3,0.8-0.4,1.4-0.4c0.6,0,1.1,0.1,1.4,0.4
			c0.4,0.3,0.5,0.6,0.5,1V44.6z"/>
	</g>
	<g>
		<path class="st0" d="M193.8,42.7h-8l-1.9,3.8c-0.2,0.3-0.4,0.6-0.7,0.7c-0.3,0.1-0.7,0.2-1.1,0.2c-0.5,0-0.9-0.1-1.3-0.3
			c-0.4-0.2-0.6-0.6-0.6-1c0-0.2,0-0.4,0.1-0.5l7.8-15.2c0.3-0.6,0.9-0.9,1.8-0.9c0.4,0,0.8,0.1,1.1,0.2c0.3,0.1,0.6,0.4,0.7,0.7
			l7.8,15.1c0,0.1,0.1,0.2,0.1,0.2c0,0.1,0,0.2,0,0.3c0,0.4-0.2,0.8-0.6,1c-0.4,0.3-0.9,0.4-1.4,0.4c-0.4,0-0.7-0.1-1.1-0.2
			c-0.3-0.1-0.6-0.4-0.7-0.7L193.8,42.7z M187.1,40.2h5.4l-2.7-5.3L187.1,40.2z"/>
	</g>
	<g>
		<path class="st1" d="M76,57.2c-0.1-0.1-0.2-0.2-0.3-0.3c-0.1-0.1-0.2-0.2-0.3-0.3c-0.1-0.1-0.2-0.2-0.3-0.2
			c-0.1-0.1-0.2-0.1-0.4-0.2c-0.1-0.1-0.3-0.1-0.4-0.2c-0.1-0.1-0.3-0.1-0.4-0.1c-0.1,0-0.3-0.1-0.4-0.1c-0.1,0-0.3,0-0.4-0.1
			c0,0,0,0,0,0c0,0,0,0,0,0H73c-0.2,0-0.4,0-0.6,0.1c-0.2,0-0.4,0.1-0.5,0.2c-0.2,0.1-0.4,0.2-0.6,0.3c-0.2,0.1-0.4,0.3-0.6,0.5
			c-0.2,0.2-0.4,0.4-0.5,0.6c-0.1,0.2-0.3,0.4-0.3,0.6c-0.1,0.2-0.2,0.4-0.2,0.7c0,0.2-0.1,0.5-0.1,0.7c0,0.3,0,0.5,0.1,0.7
			c0,0.2,0.1,0.5,0.2,0.7c0.1,0.2,0.2,0.4,0.4,0.6c0.1,0.2,0.3,0.4,0.5,0.6c0.2,0.2,0.4,0.3,0.6,0.5c0.2,0.1,0.4,0.2,0.6,0.3
			c0.2,0.1,0.4,0.1,0.6,0.2c0.2,0,0.4,0.1,0.6,0.1c0.1,0,0.2,0,0.3,0c0.1,0,0.2,0,0.3-0.1c0.1,0,0.3-0.1,0.4-0.1
			c0.1-0.1,0.3-0.1,0.4-0.2c0.1-0.1,0.3-0.1,0.4-0.2c0.1-0.1,0.2-0.2,0.4-0.3c0.1-0.1,0.2-0.2,0.3-0.3c0.1-0.1,0.2-0.2,0.3-0.4l1,0
			h0.5c-0.1,0.2-0.2,0.4-0.3,0.5c-0.1,0.2-0.3,0.3-0.4,0.5c-0.1,0.1-0.3,0.3-0.5,0.4c-0.2,0.1-0.3,0.2-0.5,0.4
			c-0.2,0.1-0.4,0.2-0.6,0.3c-0.2,0.1-0.4,0.2-0.6,0.2c-0.2,0-0.4,0.1-0.6,0.1c-0.2,0-0.4,0-0.6,0l-0.5,0c-0.3,0-0.6,0-1-0.1
			c-0.3-0.1-0.6-0.1-0.9-0.2c-0.3-0.1-0.5-0.2-0.8-0.4c-0.3-0.2-0.5-0.3-0.7-0.6c-0.2-0.2-0.4-0.5-0.6-0.7c-0.2-0.2-0.3-0.5-0.4-0.8
			c-0.1-0.3-0.2-0.5-0.3-0.8c-0.1-0.3-0.1-0.6-0.1-0.9c0-0.3,0-0.6,0.1-0.9c0.1-0.3,0.1-0.6,0.3-0.8c0.1-0.3,0.3-0.5,0.4-0.7
			c0.2-0.2,0.4-0.5,0.6-0.7c0.2-0.2,0.5-0.4,0.7-0.6c0.2-0.2,0.5-0.3,0.8-0.4c0.3-0.1,0.6-0.2,0.9-0.2c0.3-0.1,0.6-0.1,0.9-0.1h0.5
			c0.1,0,0.1,0,0.2,0c0.1,0,0.1,0,0.2,0c0,0,0.1,0,0.2,0c0.1,0,0.1,0,0.2,0c0.1,0,0.2,0,0.3,0c0.1,0,0.2,0.1,0.3,0.1
			c0.1,0,0.2,0.1,0.3,0.1c0.1,0,0.2,0.1,0.3,0.1c0.1,0,0.2,0.1,0.3,0.2c0.1,0.1,0.2,0.1,0.3,0.2l0,0l0.1,0l0,0l0.1,0c0,0,0,0,0.1,0
			c0,0,0,0,0.1,0c0,0,0,0,0,0c0,0,0,0,0,0c0,0,0,0,0,0c0,0,0,0,0,0c0,0,0.1,0.1,0.1,0.1c0,0,0.1,0.1,0.1,0.1c0,0,0.1,0.1,0.1,0.1
			c0,0,0.1,0.1,0.1,0.2c0,0,0,0,0,0c0,0,0,0,0,0c0,0,0,0,0,0c0,0,0,0,0,0c0,0,0,0,0.1,0.1c0,0,0,0,0.1,0.1c0,0,0,0.1,0.1,0.1
			c0,0,0,0.1,0.1,0.1c0,0,0,0,0,0c0,0,0,0,0,0c0,0,0,0,0,0c0,0,0,0,0,0v0l0,0l0,0l0,0H77v0H76z"/>
		<path class="st1" d="M98.3,54.9c0.3,0.1,0.6,0.1,0.9,0.3c0.3,0.1,0.6,0.2,0.8,0.4c0.3,0.2,0.5,0.4,0.7,0.6
			c0.2,0.2,0.4,0.4,0.6,0.7c0.2,0.2,0.3,0.5,0.4,0.7c0.1,0.3,0.2,0.5,0.3,0.8c0.1,0.3,0.1,0.6,0.1,0.9c0,0.3,0,0.6-0.1,0.9
			c-0.1,0.3-0.1,0.6-0.3,0.8c-0.1,0.3-0.3,0.5-0.4,0.8c-0.2,0.2-0.4,0.5-0.6,0.7c-0.2,0.2-0.5,0.4-0.7,0.6c-0.3,0.2-0.5,0.3-0.8,0.4
			c-0.3,0.1-0.6,0.2-0.9,0.2c-0.3,0.1-0.6,0.1-0.9,0.1l-0.5,0c-0.3,0-0.6,0-0.9-0.1c-0.3,0-0.6-0.1-0.9-0.2
			c-0.3-0.1-0.5-0.2-0.8-0.4c-0.3-0.2-0.5-0.3-0.7-0.6c-0.2-0.2-0.4-0.4-0.6-0.7c-0.2-0.2-0.3-0.5-0.4-0.8c-0.1-0.3-0.2-0.5-0.3-0.8
			c-0.1-0.3-0.1-0.6-0.1-0.9c0-0.3,0-0.6,0.1-0.9c0.1-0.3,0.1-0.6,0.3-0.8c0.1-0.3,0.3-0.5,0.4-0.8c0.2-0.2,0.4-0.5,0.6-0.7
			c0.2-0.2,0.5-0.4,0.7-0.6c0.3-0.2,0.5-0.3,0.8-0.4c0.3-0.1,0.6-0.2,0.9-0.2c0.3-0.1,0.6-0.1,0.9-0.1v0h0.5
			C97.7,54.8,98,54.8,98.3,54.9z M97.7,62.9c0.2,0,0.5-0.1,0.7-0.2c0.2-0.1,0.4-0.2,0.6-0.3c0.2-0.1,0.4-0.3,0.6-0.5
			c0.2-0.2,0.4-0.4,0.5-0.6c0.1-0.2,0.3-0.4,0.4-0.6c0.1-0.2,0.2-0.4,0.2-0.7c0-0.2,0.1-0.5,0.1-0.7c0-0.3,0-0.5-0.1-0.7
			c0-0.2-0.1-0.5-0.2-0.7c-0.1-0.2-0.2-0.4-0.4-0.6c-0.1-0.2-0.3-0.4-0.5-0.6c-0.2-0.2-0.4-0.3-0.6-0.5c-0.2-0.1-0.4-0.2-0.6-0.3
			c-0.2-0.1-0.4-0.1-0.6-0.2c-0.2,0-0.4-0.1-0.6-0.1c-0.2,0-0.4,0-0.6,0.1c-0.2,0-0.4,0.1-0.6,0.2c-0.2,0.1-0.4,0.2-0.7,0.3
			c-0.2,0.1-0.4,0.3-0.6,0.5c-0.2,0.2-0.4,0.4-0.5,0.6c-0.1,0.2-0.3,0.4-0.3,0.6c-0.1,0.2-0.2,0.4-0.2,0.7c0,0.2-0.1,0.5-0.1,0.7
			c0,0.3,0,0.5,0.1,0.7c0,0.2,0.1,0.5,0.2,0.7c0.1,0.2,0.2,0.4,0.4,0.6c0.1,0.2,0.3,0.4,0.5,0.6c0.2,0.2,0.4,0.3,0.6,0.5
			c0.2,0.1,0.4,0.2,0.6,0.3c0.2,0.1,0.3,0.1,0.5,0.2c0.2,0,0.3,0.1,0.5,0.1C97.2,62.9,97.4,62.9,97.7,62.9z"/>
		<path class="st1" d="M117.2,54.9h0.5h1.4l3,6.8l3-6.8h0.5h1.4v8.7h-0.5h-0.9V57l-2.9,6.6h-0.5h-0.8l-2.9-6.6v6.6h-0.5h-0.9V54.9z"
			/>
		<path class="st1" d="M142.4,54.9h0.5h2.4c0.1,0,0.2,0,0.3,0c0.1,0,0.2,0,0.3,0c0.1,0,0.2,0,0.3,0c0.1,0,0.2,0,0.3,0
			c0.1,0,0.2,0,0.3,0c0.1,0,0.2,0.1,0.3,0.1c0.1,0,0.2,0.1,0.3,0.1c0.1,0,0.2,0.1,0.3,0.1c0.1,0.1,0.2,0.1,0.3,0.2
			c0.1,0.1,0.2,0.1,0.2,0.2c0.1,0.1,0.1,0.2,0.2,0.2c0.1,0.1,0.1,0.2,0.2,0.3c0,0.1,0.1,0.2,0.1,0.3c0,0.1,0.1,0.2,0.1,0.3
			c0,0.1,0,0.2,0.1,0.3c0,0.1,0,0.2,0,0.3c0,0.1,0,0.2,0,0.3c0,0.1,0,0.2,0,0.3c0,0.1-0.1,0.2-0.1,0.3c0,0.1-0.1,0.2-0.1,0.3
			c0,0.1-0.1,0.2-0.1,0.3c-0.1,0.1-0.1,0.2-0.2,0.2c-0.1,0.1-0.1,0.1-0.2,0.2c-0.1,0.1-0.2,0.1-0.2,0.2c-0.1,0.1-0.2,0.1-0.3,0.2
			c-0.1,0.1-0.2,0.1-0.3,0.1c0,0-0.1,0-0.1,0c0,0-0.1,0-0.1,0c0,0-0.1,0-0.1,0c0,0-0.1,0-0.1,0c0,0-0.1,0-0.1,0c0,0-0.1,0-0.1,0
			c-0.1,0-0.1,0-0.2,0c0,0-0.1,0-0.1,0c-0.1,0-0.2,0-0.3,0c-0.1,0-0.2,0-0.3,0H145l-1.2,0v3.5h-0.5h-0.9V54.9z M145.3,59.3
			C145.3,59.3,145.4,59.3,145.3,59.3C145.4,59.3,145.4,59.3,145.3,59.3C145.4,59.3,145.4,59.3,145.3,59.3
			C145.4,59.3,145.4,59.3,145.3,59.3c0.1,0,0.1,0,0.1,0c0,0,0,0,0,0c0,0,0,0,0,0c0,0,0,0,0,0c0,0,0.1,0,0.1,0c0,0,0.1,0,0.1,0
			c0,0,0.1,0,0.1,0c0,0,0.1,0,0.1,0c0,0,0.1,0,0.1,0c0,0,0.1,0,0.1,0c0,0,0.1,0,0.1,0c0,0,0.1,0,0.1,0c0,0,0.1,0,0.1-0.1
			c0,0,0.1,0,0.1-0.1c0.1,0,0.1-0.1,0.2-0.1c0,0,0.1-0.1,0.1-0.1c0,0,0.1-0.1,0.1-0.2c0-0.1,0.1-0.1,0.1-0.2c0-0.1,0.1-0.1,0.1-0.2
			c0-0.1,0-0.1,0.1-0.2c0-0.1,0-0.1,0-0.2c0-0.1,0-0.1,0-0.2v0v0v0v0c0-0.1,0-0.2,0-0.3c0-0.1,0-0.2-0.1-0.3c0-0.1-0.1-0.2-0.1-0.2
			c0-0.1-0.1-0.1-0.1-0.2c0-0.1-0.1-0.1-0.2-0.2c-0.1-0.1-0.1-0.1-0.2-0.2c-0.1-0.1-0.1-0.1-0.2-0.2c-0.1,0-0.2-0.1-0.2-0.1
			c0,0,0,0-0.1,0c0,0,0,0-0.1,0c0,0,0,0-0.1,0c0,0,0,0-0.1,0c0,0,0,0-0.1,0c0,0,0,0-0.1,0c0,0,0,0-0.1,0c0,0,0,0-0.1,0c0,0,0,0,0,0
			c0,0,0,0,0,0c0,0,0,0,0,0c0,0,0,0,0,0c0,0,0,0,0,0c0,0,0,0,0,0c0,0,0,0,0,0c0,0,0,0,0,0s0,0,0,0c0,0,0,0,0,0c0,0,0,0,0,0
			c0,0,0,0,0,0c0,0,0,0-0.1,0s0,0-0.1,0h0h0H145h0c0,0,0,0,0,0c0,0,0,0,0,0c0,0,0,0,0,0c0,0,0,0,0,0h0h0h0h0h-0.1h-0.1l-0.7,0v3.6
			H145.3z"/>
		<path class="st1" d="M166.8,54.9h0.5h1l3.8,8.7h-0.5h-1l-1.3-2.9h-3.7l-1.3,2.9h-0.5h-1L166.8,54.9z M169,59.9l-1.5-3.4l-1.5,3.4
			H169z"/>
		<path class="st1" d="M186.7,54.9h0.5h1.2l4.5,6.5v-6.5h0.5h0.9v8.7h-0.5H193l-4.9-6.9v6.9h-0.5h-0.9V54.9z"/>
		<path class="st1" d="M212,60.7l-3.1-5.8h0.5h1l2.3,4.4l2.3-4.4h0.5h1l-3.1,5.8v2.9h-0.5H212V60.7z"/>
	</g>
	<g>
		<path class="st1" d="M69.2,74c0,0.1,0,0.1,0,0.2c0,0.1,0,0.1,0.1,0.2c0,0.1,0.1,0.1,0.1,0.2c0,0.1,0.1,0.1,0.1,0.2
			c0.1,0.1,0.1,0.1,0.2,0.1c0.1,0,0.1,0.1,0.2,0.1c0,0,0.1,0,0.1,0c0,0,0.1,0,0.1,0c0.1,0,0.1,0,0.2,0c0,0,0.1,0,0.1,0
			c0.1,0,0.1-0.1,0.2-0.1c0.1,0,0.1-0.1,0.2-0.1c0.1,0,0.1-0.1,0.1-0.2c0-0.1,0.1-0.1,0.1-0.2c0-0.1,0-0.1,0.1-0.2
			c0-0.1,0-0.1,0-0.2c0,0,0,0,0-0.1c0,0,0,0,0-0.1c0,0,0,0,0,0c0,0,0,0,0-0.1c0,0,0,0,0-0.1c0,0,0,0,0-0.1c0,0,0,0,0,0
			c0,0,0,0,0-0.1c0,0,0-0.1-0.1-0.1c0,0,0-0.1-0.1-0.1c0,0,0-0.1-0.1-0.1c0,0-0.1-0.1-0.1-0.1c0,0,0,0,0,0c0,0,0,0,0,0
			c0,0,0,0-0.1,0c0,0,0,0,0,0c0,0-0.1,0-0.1,0c0,0-0.1,0-0.1,0c0,0-0.1,0-0.1,0c0,0-0.1,0-0.1,0c0,0-0.1,0-0.1,0c0,0-0.1,0-0.1,0h0
			v0h0h0v0h0h0l0,0h0h0h0l0,0h0l0,0c0,0-0.1,0-0.1,0c0,0-0.1,0-0.1,0c0,0-0.1,0-0.1,0c0,0-0.1,0-0.1,0c0,0-0.1,0-0.1,0
			c0,0-0.1,0-0.1-0.1c0,0-0.1,0-0.1-0.1c0,0-0.1,0-0.1-0.1c0,0-0.1-0.1-0.1-0.1c0,0-0.1-0.1-0.1-0.1c0,0-0.1-0.1-0.1-0.1
			c0,0,0-0.1-0.1-0.1c0,0,0-0.1,0-0.1c0,0,0-0.1,0-0.1c0,0,0-0.1,0-0.1c0,0,0-0.1,0-0.1c0-0.1,0-0.2,0-0.3c0-0.1,0-0.2,0.1-0.3
			c0-0.1,0.1-0.2,0.1-0.2c0.1-0.1,0.1-0.1,0.2-0.2c0.1-0.1,0.2-0.1,0.2-0.2c0.1,0,0.2-0.1,0.3-0.1c0.1,0,0.2-0.1,0.3-0.1
			c0.1,0,0.2,0,0.3,0h0.3c0.1,0,0.2,0,0.3,0c0.1,0,0.2,0,0.3,0.1c0.1,0,0.2,0.1,0.3,0.1c0.1,0.1,0.2,0.1,0.2,0.2
			c0.1,0.1,0.1,0.1,0.2,0.2c0.1,0.1,0.1,0.2,0.1,0.2c0,0.1,0.1,0.2,0.1,0.3c0,0.1,0,0.2,0,0.3h-0.3l-0.6,0c0-0.1,0-0.1,0-0.2
			c0-0.1,0-0.1-0.1-0.2c0-0.1-0.1-0.1-0.1-0.2c0,0-0.1-0.1-0.1-0.1c0,0-0.1-0.1-0.2-0.1c-0.1,0-0.1-0.1-0.2-0.1c0,0-0.1,0-0.1,0
			c0,0-0.1,0-0.1,0c0,0-0.1,0-0.1,0c0,0-0.1,0-0.1,0c-0.1,0-0.1,0-0.2,0.1c0,0-0.1,0.1-0.1,0.1c0,0-0.1,0.1-0.1,0.1
			c0,0-0.1,0.1-0.1,0.2c0,0.1,0,0.1,0,0.2c0,0.1,0,0.1,0,0.2c0,0.1,0,0.1,0,0.2c0,0.1,0,0.1,0.1,0.2c0,0.1,0.1,0.1,0.1,0.1
			c0,0,0.1,0.1,0.1,0.1c0.1,0,0.1,0.1,0.2,0.1c0.1,0,0.1,0.1,0.2,0.1c0.1,0,0.1,0,0.2,0.1c0.1,0,0.1,0,0.2,0.1l0,0h0h0h0l0,0h0l0,0
			h0l0,0h0l0,0h0c0,0,0,0,0.1,0c0,0,0,0,0.1,0c0,0,0,0,0.1,0c0,0,0,0,0.1,0c0,0,0,0,0.1,0c0,0,0,0,0.1,0c0,0,0,0,0,0c0,0,0,0,0.1,0
			c0,0,0.1,0,0.1,0c0,0,0.1,0,0.1,0.1c0,0,0.1,0,0.1,0.1c0,0,0.1,0,0.1,0.1c0,0,0.1,0.1,0.1,0.1c0,0,0.1,0.1,0.1,0.1
			c0,0,0.1,0.1,0.1,0.1c0,0,0.1,0.1,0.1,0.1c0,0,0,0.1,0.1,0.1c0,0.1,0,0.1,0,0.2c0,0,0,0,0,0.1c0,0,0,0.1,0,0.1c0,0,0,0.1,0,0.1
			c0,0,0,0.1,0,0.1c0,0.1,0,0.2,0,0.3c0,0.1-0.1,0.2-0.1,0.3c0,0.1-0.1,0.2-0.2,0.3c-0.1,0.1-0.1,0.2-0.2,0.2
			c-0.1,0.1-0.2,0.1-0.3,0.2c-0.1,0.1-0.2,0.1-0.3,0.1c-0.1,0-0.2,0.1-0.3,0.1c-0.1,0-0.2,0-0.3,0l-0.3,0c-0.1,0-0.2,0-0.3,0
			c-0.1,0-0.2,0-0.3-0.1c-0.1,0-0.2-0.1-0.3-0.1c-0.1-0.1-0.2-0.1-0.3-0.2c-0.1-0.1-0.2-0.1-0.2-0.2c-0.1-0.1-0.1-0.2-0.2-0.3
			c0-0.1-0.1-0.2-0.1-0.3c0-0.1,0-0.2,0-0.3v0h0.3H69.2z"/>
		<path class="st1" d="M79.6,70.2c0.2,0,0.4,0.1,0.5,0.2c0.2,0.1,0.3,0.1,0.5,0.2c0.2,0.1,0.3,0.2,0.4,0.3c0.1,0.1,0.3,0.3,0.4,0.4
			c0.1,0.1,0.2,0.3,0.3,0.5c0.1,0.2,0.1,0.3,0.2,0.5c0,0.2,0.1,0.4,0.1,0.5c0,0.2,0,0.4-0.1,0.6c0,0.2-0.1,0.3-0.2,0.5
			c-0.1,0.2-0.2,0.3-0.3,0.5c-0.1,0.1-0.2,0.3-0.4,0.4c-0.1,0.1-0.3,0.2-0.4,0.3c-0.2,0.1-0.3,0.2-0.5,0.2c-0.2,0.1-0.3,0.1-0.5,0.1
			c-0.2,0-0.4,0-0.6,0l-0.3,0c-0.2,0-0.4,0-0.6,0c-0.2,0-0.4-0.1-0.5-0.1c-0.2-0.1-0.3-0.1-0.5-0.2c-0.2-0.1-0.3-0.2-0.4-0.3
			c-0.1-0.1-0.3-0.3-0.4-0.4c-0.1-0.1-0.2-0.3-0.3-0.5c-0.1-0.2-0.1-0.3-0.2-0.5c0-0.2-0.1-0.4-0.1-0.5c0-0.2,0-0.4,0.1-0.5
			c0-0.2,0.1-0.3,0.2-0.5c0.1-0.2,0.2-0.3,0.3-0.5c0.1-0.1,0.2-0.3,0.4-0.4c0.1-0.1,0.3-0.2,0.4-0.3c0.2-0.1,0.3-0.2,0.5-0.2
			c0.2-0.1,0.3-0.1,0.5-0.1c0.2,0,0.4,0,0.6,0v0h0.3C79.3,70.1,79.4,70.2,79.6,70.2z M79.2,75c0.1,0,0.3-0.1,0.4-0.1
			c0.1-0.1,0.3-0.1,0.4-0.2c0.1-0.1,0.2-0.2,0.4-0.3c0.1-0.1,0.2-0.2,0.3-0.3c0.1-0.1,0.2-0.2,0.2-0.4c0.1-0.1,0.1-0.3,0.1-0.4
			c0-0.1,0-0.3,0-0.5c0-0.2,0-0.3,0-0.4c0-0.1-0.1-0.3-0.1-0.4c-0.1-0.1-0.1-0.3-0.2-0.4c-0.1-0.1-0.2-0.2-0.3-0.3
			c-0.1-0.1-0.2-0.2-0.4-0.3c-0.1-0.1-0.3-0.1-0.4-0.2c-0.1,0-0.2-0.1-0.4-0.1c-0.1,0-0.2,0-0.4,0c-0.1,0-0.3,0-0.4,0
			c-0.1,0-0.2,0.1-0.4,0.1C78,70.9,77.9,71,77.8,71c-0.1,0.1-0.2,0.2-0.4,0.3c-0.1,0.1-0.2,0.2-0.3,0.3C77,71.8,77,71.9,76.9,72
			c-0.1,0.1-0.1,0.3-0.1,0.4c0,0.1,0,0.3,0,0.4c0,0.2,0,0.3,0,0.4c0,0.1,0.1,0.3,0.1,0.4c0.1,0.1,0.1,0.2,0.2,0.4
			c0.1,0.1,0.2,0.2,0.3,0.3c0.1,0.1,0.2,0.2,0.4,0.3c0.1,0.1,0.3,0.2,0.4,0.2c0.1,0,0.2,0.1,0.3,0.1c0.1,0,0.2,0,0.3,0.1
			C79,75.1,79.1,75.1,79.2,75z"/>
		<path class="st1" d="M86.3,70.2h0.3h0.5V75h2.3v0.5h-0.3h-2.8V70.2z"/>
		<path class="st1" d="M93,70.2h0.3h0.6l1.8,4.2l1.8-4.2h0.3h0.6L96,75.5h-0.3h-0.5L93,70.2z"/>
		<path class="st1" d="M102.4,70.2h0.3h3v0.5h-2.4v1.9h2.3v0.5h-2.3V75h2.4v0.5h-0.3h-3V70.2z"/>
		<path class="st1" d="M110.1,70.2h0.3h0.7l2.8,3.9v-3.9h0.3h0.5v5.3h-0.3h-0.5l-2.9-4.2v4.2h-0.3h-0.5V70.2z"/>
		<path class="st1" d="M123.8,71.6c0-0.1-0.1-0.1-0.2-0.2c-0.1-0.1-0.1-0.1-0.2-0.2c-0.1-0.1-0.1-0.1-0.2-0.1
			c-0.1,0-0.1-0.1-0.2-0.1c-0.1,0-0.2-0.1-0.2-0.1c-0.1,0-0.2-0.1-0.2-0.1c-0.1,0-0.2,0-0.2-0.1c-0.1,0-0.2,0-0.2,0c0,0,0,0,0,0
			c0,0,0,0,0,0h0c-0.1,0-0.2,0-0.3,0.1c-0.1,0-0.2,0.1-0.3,0.1c-0.1,0.1-0.3,0.1-0.4,0.2c-0.1,0.1-0.2,0.2-0.4,0.3
			c-0.1,0.1-0.2,0.2-0.3,0.3c-0.1,0.1-0.2,0.2-0.2,0.4c-0.1,0.1-0.1,0.3-0.1,0.4c0,0.1,0,0.3,0,0.4c0,0.2,0,0.3,0,0.4
			c0,0.1,0.1,0.3,0.1,0.4c0.1,0.1,0.1,0.3,0.2,0.4c0.1,0.1,0.2,0.2,0.3,0.3c0.1,0.1,0.2,0.2,0.4,0.3c0.1,0.1,0.3,0.2,0.4,0.2
			c0.1,0,0.2,0.1,0.3,0.1c0.1,0,0.2,0,0.4,0.1c0.1,0,0.1,0,0.2,0c0.1,0,0.1,0,0.2,0c0.1,0,0.2-0.1,0.3-0.1c0.1,0,0.2-0.1,0.3-0.1
			c0.1,0,0.2-0.1,0.2-0.1c0.1-0.1,0.1-0.1,0.2-0.2c0.1-0.1,0.1-0.1,0.2-0.2c0.1-0.1,0.1-0.1,0.2-0.2l0.6,0h0.3
			c-0.1,0.1-0.1,0.2-0.2,0.3c-0.1,0.1-0.2,0.2-0.2,0.3c-0.1,0.1-0.2,0.2-0.3,0.3c-0.1,0.1-0.2,0.2-0.3,0.2c-0.1,0.1-0.2,0.1-0.3,0.2
			c-0.1,0-0.2,0.1-0.4,0.1c-0.1,0-0.2,0-0.4,0.1c-0.1,0-0.2,0-0.4,0l-0.3,0c-0.2,0-0.4,0-0.6-0.1c-0.2,0-0.4-0.1-0.5-0.1
			c-0.2-0.1-0.3-0.1-0.5-0.2c-0.2-0.1-0.3-0.2-0.4-0.3c-0.1-0.1-0.3-0.3-0.4-0.4c-0.1-0.1-0.2-0.3-0.3-0.5c-0.1-0.2-0.1-0.3-0.2-0.5
			c0-0.2-0.1-0.4-0.1-0.6c0-0.2,0-0.4,0.1-0.5c0-0.2,0.1-0.3,0.2-0.5c0.1-0.2,0.2-0.3,0.3-0.5c0.1-0.1,0.2-0.3,0.4-0.4
			c0.1-0.1,0.3-0.2,0.4-0.3c0.1-0.1,0.3-0.2,0.5-0.2c0.2-0.1,0.3-0.1,0.5-0.1c0.2,0,0.4,0,0.6,0h0.3c0,0,0.1,0,0.1,0
			c0,0,0.1,0,0.1,0c0,0,0.1,0,0.1,0c0,0,0.1,0,0.1,0c0.1,0,0.1,0,0.2,0c0.1,0,0.1,0,0.2,0c0.1,0,0.1,0,0.2,0.1c0.1,0,0.1,0,0.2,0.1
			c0.1,0,0.1,0.1,0.2,0.1c0.1,0,0.1,0.1,0.2,0.1l0,0l0,0l0,0l0,0c0,0,0,0,0,0c0,0,0,0,0,0c0,0,0,0,0,0c0,0,0,0,0,0c0,0,0,0,0,0
			c0,0,0,0,0,0c0,0,0.1,0,0.1,0.1c0,0,0.1,0.1,0.1,0.1c0,0,0.1,0.1,0.1,0.1c0,0,0.1,0.1,0.1,0.1c0,0,0,0,0,0c0,0,0,0,0,0
			c0,0,0,0,0,0c0,0,0,0,0,0c0,0,0,0,0,0c0,0,0,0,0,0c0,0,0,0,0,0.1c0,0,0,0,0,0c0,0,0,0,0,0c0,0,0,0,0,0c0,0,0,0,0,0c0,0,0,0,0,0v0
			l0,0l0,0l0,0h-0.3v0H123.8z"/>
		<path class="st1" d="M129,70.2h0.3h0.5v5.3h-0.3H129V70.2z"/>
		<path class="st1" d="M136.3,70.2h0.3h0.6l2.3,5.3h-0.3h-0.6l-0.8-1.8h-2.2l-0.8,1.8h-0.3H134L136.3,70.2z M137.7,73.2l-0.9-2.1
			l-0.9,2.1H137.7z"/>
		<path class="st1" d="M151.3,70.2h0.3h0.6l2.3,5.3h-0.3h-0.6l-0.8-1.8h-2.2l-0.8,1.8h-0.3H149L151.3,70.2z M152.7,73.2l-0.9-2.1
			l-0.9,2.1H152.7z"/>
		<path class="st1" d="M158.7,70.2h0.3h0.7l2.8,3.9v-3.9h0.3h0.5v5.3H163h-0.5l-2.9-4.2v4.2h-0.3h-0.5V70.2z"/>
		<path class="st1" d="M169.7,70.2h0.3h0.6l2.3,5.3h-0.3h-0.6l-0.8-1.8h-2.2l-0.8,1.8H168h-0.6L169.7,70.2z M171.1,73.2l-0.9-2.1
			l-0.9,2.1H171.1z"/>
		<path class="st1" d="M177.1,70.2h0.3h0.5V75h2.3v0.5h-0.3h-2.8V70.2z"/>
		<path class="st1" d="M185.1,68.5h0.3l0.3,0.4l-1.4,0.8h-0.3l-0.3-0.4L185.1,68.5z M184.2,70.2h0.3h0.5v5.3h-0.3h-0.5V70.2z"/>
		<path class="st1" d="M190.4,70.7h-1.3v-0.5h0.3h3v0.5h-1.2v4.8h-0.3h-0.5V70.7z"/>
		<path class="st1" d="M196.6,70.2h0.3h0.5v5.3h-0.3h-0.5V70.2z"/>
		<path class="st1" d="M206.5,71.6c0-0.1-0.1-0.1-0.2-0.2c-0.1-0.1-0.1-0.1-0.2-0.2c-0.1-0.1-0.1-0.1-0.2-0.1
			c-0.1,0-0.1-0.1-0.2-0.1c-0.1,0-0.2-0.1-0.2-0.1c-0.1,0-0.2-0.1-0.2-0.1c-0.1,0-0.2,0-0.2-0.1c-0.1,0-0.2,0-0.2,0c0,0,0,0,0,0
			s0,0,0,0h0c-0.1,0-0.2,0-0.3,0.1c-0.1,0-0.2,0.1-0.3,0.1c-0.1,0.1-0.3,0.1-0.4,0.2c-0.1,0.1-0.2,0.2-0.4,0.3
			c-0.1,0.1-0.2,0.2-0.3,0.3c-0.1,0.1-0.2,0.2-0.2,0.4c-0.1,0.1-0.1,0.3-0.1,0.4c0,0.1,0,0.3,0,0.4c0,0.2,0,0.3,0,0.4
			c0,0.1,0.1,0.3,0.1,0.4c0.1,0.1,0.1,0.3,0.2,0.4c0.1,0.1,0.2,0.2,0.3,0.3c0.1,0.1,0.2,0.2,0.4,0.3c0.1,0.1,0.3,0.2,0.4,0.2
			c0.1,0,0.2,0.1,0.3,0.1c0.1,0,0.2,0,0.4,0.1c0.1,0,0.1,0,0.2,0c0.1,0,0.1,0,0.2,0c0.1,0,0.2-0.1,0.3-0.1c0.1,0,0.2-0.1,0.3-0.1
			c0.1,0,0.2-0.1,0.2-0.1c0.1-0.1,0.2-0.1,0.2-0.2c0.1-0.1,0.1-0.1,0.2-0.2c0.1-0.1,0.1-0.1,0.2-0.2l0.6,0h0.3
			c-0.1,0.1-0.1,0.2-0.2,0.3c-0.1,0.1-0.2,0.2-0.2,0.3c-0.1,0.1-0.2,0.2-0.3,0.3c-0.1,0.1-0.2,0.2-0.3,0.2c-0.1,0.1-0.2,0.1-0.3,0.2
			c-0.1,0-0.2,0.1-0.4,0.1c-0.1,0-0.2,0-0.4,0.1c-0.1,0-0.2,0-0.4,0l-0.3,0c-0.2,0-0.4,0-0.6-0.1c-0.2,0-0.4-0.1-0.5-0.1
			c-0.2-0.1-0.3-0.1-0.5-0.2c-0.2-0.1-0.3-0.2-0.4-0.3c-0.1-0.1-0.3-0.3-0.4-0.4c-0.1-0.1-0.2-0.3-0.3-0.5c-0.1-0.2-0.1-0.3-0.2-0.5
			c0-0.2-0.1-0.4-0.1-0.6c0-0.2,0-0.4,0.1-0.5c0-0.2,0.1-0.3,0.2-0.5c0.1-0.2,0.2-0.3,0.3-0.5c0.1-0.1,0.2-0.3,0.4-0.4
			c0.1-0.1,0.3-0.2,0.4-0.3c0.1-0.1,0.3-0.2,0.5-0.2c0.2-0.1,0.3-0.1,0.5-0.1c0.2,0,0.4,0,0.6,0h0.3c0,0,0.1,0,0.1,0
			c0,0,0.1,0,0.1,0c0,0,0.1,0,0.1,0c0,0,0.1,0,0.1,0c0.1,0,0.1,0,0.2,0c0.1,0,0.1,0,0.2,0c0.1,0,0.1,0,0.2,0.1c0.1,0,0.1,0,0.2,0.1
			c0.1,0,0.1,0.1,0.2,0.1c0.1,0,0.1,0.1,0.2,0.1l0,0l0,0l0,0l0,0c0,0,0,0,0,0c0,0,0,0,0,0c0,0,0,0,0,0c0,0,0,0,0,0c0,0,0,0,0,0
			c0,0,0,0,0,0c0,0,0.1,0,0.1,0.1c0,0,0.1,0.1,0.1,0.1c0,0,0.1,0.1,0.1,0.1c0,0,0.1,0.1,0.1,0.1c0,0,0,0,0,0c0,0,0,0,0,0
			c0,0,0,0,0,0c0,0,0,0,0,0c0,0,0,0,0,0c0,0,0,0,0,0c0,0,0,0,0,0.1c0,0,0,0,0,0c0,0,0,0,0,0c0,0,0,0,0,0c0,0,0,0,0,0c0,0,0,0,0,0v0
			l0,0l0,0l0,0h-0.3v0H206.5z"/>
		<path class="st1" d="M213.6,70.2h0.3h0.6l2.3,5.3h-0.3h-0.6l-0.8-1.8h-2.2l-0.8,1.8h-0.3h-0.6L213.6,70.2z M214.9,73.2l-0.9-2.1
			l-0.9,2.1H214.9z"/>
	</g>
</g>
</svg>
