<?xml version="1.0" encoding="utf-8"?>
<!-- Generator: Adobe Illustrator 26.0.2, SVG Export Plug-In . SVG Version: 6.00 Build 0)  -->
<svg version="1.1" id="Capa_1" xmlns="http://www.w3.org/2000/svg" xmlns:xlink="http://www.w3.org/1999/xlink" x="0px" y="0px"
	 viewBox="0 0 1034 160" style="enable-background:new 0 0 1034 160;" xml:space="preserve">
<style type="text/css">
	.st0{fill:#628A1A;}
	.st1{fill:#323A34;}
	.st2{fill:#202721;}
</style>
<g>
	<path class="st0" d="M381.9,21.3c0-2.5-1.4-3.3-3.3-1.4l-6.9,6.1c-1.8,1.8-1.1,3.3,1.4,3.3h1.8v4.7c0,1.1-0.7,1.4-1.8,1.4h-13.7
		c-1.8,0-3.3-0.4-4.7-1.1c-3.3-1.8-5.1-4.7-5.1-9c0-2.9,1.1-5.1,2.9-7.2c1.8-1.8,4.3-2.9,7.2-2.9h17.7h1.4c1.8,0,2.9-1.1,2.9-3.3
		s-1.1-3.3-2.9-3.3h-19.5c-4.7,0-8.7,1.4-11.9,4.7c-2.9,2.9-4.7,6.9-4.7,11.9s1.4,9,4.7,11.9c2.9,2.9,7.2,4.3,11.9,4.3h19.9
		c1.4,0,2.2-0.7,2.2-2.2V24.9l0,0v-0.4v-3.3H381.9z"/>
	<path class="st1" d="M392.7,39.4c-0.4,0.4-1.1,1.1-1.1,1.4c0,1.1,3.3,0.7,4,0.7h15.5c5.1,0,9-1.4,11.9-4.3
		c2.9-2.9,4.3-6.9,4.3-11.9s-1.4-9-4.7-11.9c-2.5-3.3-6.5-4.7-11.6-4.7h-21.3c-1.4,0-2.5,0.7-2.5,2.5v20.6v2.5v2.2
		c0,2.5,1.4,3.3,3.3,1.4l6.5-6.1c1.8-1.8,1.1-3.3-1.4-3.3h-1.4v-0.4V17c0-1.1,0.7-1.8,1.8-1.8h15.2c2.9,0,5.1,1.1,6.9,2.5
		c2.2,1.8,3.3,4.3,3.3,7.2c0,2.2-0.4,4-1.4,5.4c-1.8,2.9-4.7,4.3-8.7,4.3h-11.6c-0.7,0-1.4,0-2.2,0.4
		C395.6,35.7,394.2,37.9,392.7,39.4"/>
	<path class="st1" d="M355.2,62.1c7.2,5.8,10.5,13,10.5,22.4s-3.6,17-10.5,22.4c-7.2,5.8-16.3,8.7-28.2,8.3h-32.9
		c-3.6,0-5.8-1.8-5.8-5.4V58.1c0-3.3,1.8-4.7,5.8-4.7H327C338.5,53.4,348.3,56.3,355.2,62.1 M308.2,65.7c-2.9,0-4.3,1.1-4.3,3.3
		v30.7c0,2.2,1.4,3.3,4.7,3.3H327c9,0,15.9-2.5,20.2-8.3c1.1-1.4,1.8-2.9,2.5-4.7c0.7-1.8,0.7-3.6,0.7-5.4c0-5.8-2.5-10.5-7.2-13.7
		c-4.3-3.3-9.8-4.7-16.3-4.7h-18.8V65.7z"/>
	<path class="st1" d="M377.6,59.6c0-4,2.5-6.1,7.9-6.1c5.4,0,7.9,2.2,7.6,6.1v49.5c0.4,4.3-2.2,6.1-7.6,6.1c-5.1,0-7.9-2.2-7.9-6.1
		V59.6z"/>
	<path class="st1" d="M426.7,90.7v18.4c0.4,4.3-2.2,6.1-7.6,6.1c-5.1,0-7.9-2.2-7.9-6.1V60.7c0-4.7,2.5-7.2,7.9-7.2h44.4
		c4.3,0,6.5,1.8,6.5,6.1c0,4-2.2,6.1-6.5,6.1H431c-2.9,0-4.7,1.4-4.7,4.3v8.3h18.8c5.4,0,7.9,2.2,7.9,6.1c0,4.3-2.9,6.1-8.3,6.1
		H426.7z"/>
	<path class="st1" d="M503.3,72.6c-1.8-4.3-3.6-4.3-5.4,0l-19.1,40.1c-1.1,1.8-2.5,2.9-4.7,2.9h-7.9c-2.9,0-3.6-1.4-2.5-4.3
		l26.7-54.2c1.8-2.5,5.1-3.6,10.1-3.6c5.1,0,8.3,1.4,9.8,4l27.5,54.2c0.4,1.4,0.4,2.2,0,2.9c-0.4,0.7-1.4,1.1-2.9,1.1h-7.9
		c-2.2,0-4-1.1-4.7-2.9L503.3,72.6z"/>
	<path class="st1" d="M614.2,84.9c6.9-1.4,10.8-5.8,11.2-13c0-4-1.1-7.2-3.6-10.1c-5.1-5.8-14.1-8.3-27.5-8.7h-37.6
		c-5.8,0-8.7,2.5-8.7,7.9v48c0,4,2.5,6.1,7.9,6.1c5.4,0,7.9-2.2,7.6-6.1V90.7l0,0h37.2c4.3,0,7.2,1.1,8.3,2.9
		c0.4,0.4,0.4,0.7,0.7,1.4c0,0.7,0,1.1,0,1.8v12.3c0,4,2.5,6.1,7.6,6.1s7.9-2.2,7.9-6.1V96.8C624.6,90.3,621,86.3,614.2,84.9
		 M609.8,74c0,0.7-0.4,1.1-0.7,1.4c-1.1,1.8-4,2.9-8.3,2.9h-37.6v-8.3c0-2.9,1.8-4.7,5.4-4.7h25.6c2.2,0,4.3,0,6.1,0.4
		c1.8,0,3.3,0.4,4.3,0.7c2.2,0.4,3.3,1.1,4,1.8c0.7,0.7,1.1,1.8,1.1,3.6C609.8,72.6,609.8,73.3,609.8,74"/>
	<path class="st1" d="M653.5,90.7v7.9c0,2.9,1.4,4.7,4.7,4.7h50.6c4.3,0,6.5,2.2,6.5,6.1s-2.2,6.1-6.9,6.1h-61.8
		c-5.4,0-8.3-2.5-8.3-7.2V60.7c0-4.7,2.5-7.2,7.9-7.2h62.9c4.3,0,6.5,1.8,6.5,6.1s-2.2,6.1-6.5,6.1h-50.6c-2.9,0-4.7,1.8-4.7,4.3
		v8.3h34.7c5.4,0,7.9,2.2,7.9,6.1c0,4.3-2.9,6.1-8.3,6.1H653.5z"/>
	<path class="st2" d="M299.5,151c-6.1,0-10.8-4.7-10.8-12.6c0-7.9,4.3-12.6,11.6-12.6c5.4,0,9,2.9,9.8,7.9h-3.3
		c-0.7-3.3-2.9-5.1-6.5-5.1c-5.1,0-8.3,3.6-8.3,9.8c0,6.1,3.3,9.8,7.9,9.8c4.3,0,7.2-2.9,7.2-7.6v-0.4h-7.2v-2.5h10.5v13h-2.2
		l-0.7-3.3C305.7,149.9,302.8,151,299.5,151"/>
	<path class="st2" d="M402.1,126.8c2.2,0,3.6,0,5.1,0.7c1.8,1.1,3.3,3.3,3.3,5.8c0,2.5-1.1,4.3-3.3,5.4c2.2,0.7,2.5,1.8,2.9,4.3
		l0.4,4c0,1.4,0.4,2.5,1.1,2.9v0.7h-3.6c-0.4-0.7-0.4-1.8-0.7-3.3l-0.4-3.3c-0.4-3.6-1.1-4-5.4-4h-5.1v10.1h-3.3v-23.8h9V126.8z
		 M396.3,137.6h5.4c3.6,0,5.4-1.1,5.4-4.3s-1.8-4-5.4-4h-5.4V137.6z"/>
	<path class="st2" d="M493.1,126.8h3.3v14.8c0,4.3,1.8,6.5,6.1,6.5c4,0,6.1-2.2,6.1-6.5v-14.8h3.3v14.8c0,6.5-3.3,9.8-9.8,9.8
		c-5.8,0-9-3.3-9-9.8C493.1,141.6,493.1,126.8,493.1,126.8z"/>
	<path class="st2" d="M594.7,126.8h7.9h0.7c2.2,0,3.6,0,5.1,0.7c1.8,1.1,2.9,3.3,2.9,6.1c0,2.5-1.1,4.7-2.9,5.8
		c-1.4,1.1-3.3,1.1-5.8,1.1h-5.1v10.1h-3.3v-23.8H594.7z M603.3,137.6c3.6,0,5.1-0.7,5.1-4c0-2.9-1.4-4-4.7-4h-5.8v7.9
		C597.9,137.6,603.3,137.6,603.3,137.6z"/>
	<path class="st2" d="M703.8,126.1c6.9,0,11.2,4.7,11.2,12.6s-4.3,12.6-11.2,12.6c-6.9,0-11.2-4.7-11.2-12.6
		S696.9,126.1,703.8,126.1 M703.8,148.5c5.1,0,7.9-3.6,7.9-9.8s-2.9-9.8-7.9-9.8c-5.1,0-7.9,3.6-7.9,9.8S699.1,148.5,703.8,148.5"/>
</g>
</svg>
