<?xml version="1.0" encoding="utf-8"?>
<!-- Generator: Adobe Illustrator 26.0.2, SVG Export Plug-In . SVG Version: 6.00 Build 0)  -->
<svg version="1.1" id="Capa_1" xmlns="http://www.w3.org/2000/svg" xmlns:xlink="http://www.w3.org/1999/xlink" x="0px" y="0px"
	 viewBox="0 0 1034 160" style="enable-background:new 0 0 1034 160;" xml:space="preserve">
<style type="text/css">
	.st0{fill:#628A1A;}
	.st1{fill:#323A34;}
</style>
<g>
	<path class="st0" d="M488.7,64.4c0-10.3-5.9-13.3-13.3-5.9l-28,25c-7.4,7.4-4.4,13.3,5.9,13.3h7.4V116c0,4.4-2.9,5.9-7.4,5.9h-56
		c-7.4,0-13.3-1.5-19.1-4.4c-13.3-7.4-20.6-19.1-20.6-36.8c0-11.8,4.4-20.6,11.8-29.5c7.4-7.4,17.7-11.8,29.5-11.8h72.2h5.9
		c7.4,0,11.8-4.4,11.8-13.3s-4.4-13.3-11.8-13.3h-79.5c-19.1,0-35.3,5.9-48.6,19.1c-11.8,11.8-19.1,28-19.1,48.6s5.9,36.8,19.1,48.6
		c11.8,11.8,29.5,17.7,48.6,17.7h81c5.9,0,8.8-2.9,8.8-8.8V79.1l0,0v-1.5V64.4H488.7z"/>
	<path class="st1" d="M532.9,138c-1.5,1.5-4.4,4.4-4.4,5.9c0,4.4,13.3,2.9,16.2,2.9H608c20.6,0,36.8-5.9,48.6-17.7
		c11.8-11.8,17.7-28,17.7-48.6s-5.9-36.8-19.1-48.6c-10.3-13.3-26.5-19.1-47.1-19.1h-86.9c-5.9,0-10.3,2.9-10.3,10.3v83.9v10.3v8.8
		c0,10.3,5.9,13.3,13.3,5.9l26.5-25c7.4-7.4,4.4-13.3-5.9-13.3h-5.9v-1.5V46.7c0-4.4,2.9-7.4,7.4-7.4H608c11.8,0,20.6,4.4,28,10.3
		c8.8,7.4,13.3,17.7,13.3,29.5c0,8.8-1.5,16.2-5.9,22.1c-7.4,11.8-19.1,17.7-35.3,17.7h-47.1c-2.9,0-5.9,0-8.8,1.5
		C544.7,123.3,538.8,132.2,532.9,138"/>
</g>
</svg>
