<?xml version="1.0" encoding="utf-8"?>
<!-- Generator: Adobe Illustrator 25.4.0, SVG Export Plug-In . SVG Version: 6.00 Build 0)  -->
<svg version="1.1" id="Capa_1" xmlns="http://www.w3.org/2000/svg" xmlns:xlink="http://www.w3.org/1999/xlink" x="0px" y="0px"
	 width="32px" height="32px" viewBox="0 0 32 32" style="enable-background:new 0 0 32 32;" xml:space="preserve">
<style type="text/css">
	.st0{fill:none;stroke:#449FDB;}
	.st1{fill:#005CB9;}
	.st2{fill:#E6007E;}
	.st3{fill:#FFFFFF;}
</style>
<g id="icomoon-ignore">
	<line class="st0" x1="0" y1="0" x2="0" y2="0"/>
</g>
<path class="st1" d="M15.9,32c0,0-9.9-14.1-9.9-20.1C6,0.1,15.9,0,15.9,0S26,0.1,26,11.9C26,18.1,15.9,32,15.9,32z M16,6
	c-2.2,0-4,1.8-4,4s1.8,4,4,4s4-1.8,4-4S18.2,6,16,6z"/>
<g>
	<path class="st2" d="M8,16.3c0,1.9,1.6,3.5,3.5,3.5h8.9c2,0,3.5-1.6,3.5-3.5v-9c0-1.9-1.6-3.5-3.5-3.5h-8.9C9.6,3.9,8,5.4,8,7.4
		V16.3z"/>
	<path class="st3" d="M20.5,18.7h-8.9c-1.3,0-2.4-1.1-2.4-2.4v-9c0-1.3,1.1-2.4,2.4-2.4h8.9c1.3,0,2.4,1.1,2.4,2.4v9
		C22.9,17.6,21.8,18.7,20.5,18.7"/>
	<path class="st1" d="M13.5,6.7c0,0.1,0,0.1,0,0.2l1.4,3.8l-3.8-1.4c-0.1,0-0.1,0-0.2,0c-0.3,0-0.6,0.3-0.6,0.6v4
		c0,0.3,0.3,0.6,0.6,0.6c0.1,0,0.1,0,0.2,0l3.8-1.4l-1.4,3.8c0,0.1,0,0.1,0,0.2c0,0.3,0.3,0.6,0.6,0.6h4c0.3,0,0.6-0.3,0.6-0.6
		c0-0.1,0-0.1,0-0.2L17.2,13l3.8,1.4c0.1,0,0.1,0,0.2,0c0.3,0,0.6-0.3,0.6-0.6v-4c0-0.3-0.3-0.6-0.6-0.6c-0.1,0-0.1,0-0.2,0
		l-3.8,1.4l1.4-3.8c0-0.1,0-0.1,0-0.2c0-0.3-0.3-0.6-0.6-0.6h-4C13.7,6.1,13.5,6.4,13.5,6.7"/>
	<polygon class="st3" points="15.3,10.7 16.7,10.7 16.7,11.2 15.9,11.2 15.9,11.6 16.7,11.6 16.7,12.1 15.9,12.1 15.9,13 15.3,13 	
		"/>
</g>
</svg>
