<?xml version="1.0" encoding="UTF-8"?>
<svg id="Layer_2" data-name="Layer 2" xmlns="http://www.w3.org/2000/svg" viewBox="0 0 12.99 12.99">
  <defs>
    <style>
      .cls-1 {
        fill: #757575;
      }
    </style>
  </defs>
  <g id="Layer_1-2" data-name="Layer 1">
    <path class="cls-1" d="M12.99,6.5c0,3.55-2.81,6.5-6.5,6.5C2.81,13,0,10.05,0,6.5,0,2.95,2.8,0,6.49,0c3.68,0,6.49,2.94,6.5,6.5ZM5.9,2.84c0,.12,0,.2,0,.28,.05,.44-.02,.73-.54,.88-.59,.17-.91,.67-.93,1.29-.02,.63,.31,1.07,.89,1.32,.26,.11,.52,.21,.79,.31,.4,.15,.82,.26,1.2,.44,.32,.14,.31,.45,0,.63-.14,.08-.32,.15-.48,.14-.35-.01-.7-.05-1.03-.12-.39-.09-.77-.23-1.19-.35-.11,.36-.22,.7-.33,1.06,.47,.15,.9,.29,1.33,.4,.21,.06,.3,.15,.28,.37-.02,.22,0,.44,0,.67h1.12v-.87c.29-.1,.56-.16,.8-.28,.57-.28,.84-.77,.84-1.4,0-.6-.31-1.03-.86-1.27-.28-.12-.56-.23-.85-.33-.36-.13-.73-.24-1.08-.38-.12-.05-.28-.21-.27-.29,.02-.13,.16-.31,.28-.33,.37-.06,.76-.1,1.13-.08,.37,.03,.73,.14,1.12,.23,.09-.36,.17-.7,.26-1.07-.48-.11-.92-.22-1.39-.33v-.91h-1.1Z"/>
  </g>
</svg>