<?xml version="1.0" encoding="UTF-8"?>
<svg id="Layer_2" data-name="Layer 2" xmlns="http://www.w3.org/2000/svg" viewBox="0 0 215.98 52.34">
  <defs>
    <style>
      .cls-1 {
        fill: #fff;
      }

      .cls-2 {
        fill: #005cb9;
      }

      .cls-3 {
        fill: none;
        stroke: #d53a32;
        stroke-miterlimit: 10;
        stroke-width: 1.3px;
      }

      .cls-4 {
        fill: #ec008c;
      }
    </style>
  </defs>
  <g id="Layer_1-2" data-name="Layer 1">
    <g>
      <line class="cls-3" x1="123.07" y1="3.11" x2="120.91" y2="3.11"/>
      <path class="cls-4" d="M85.38,33.2c0,5.16,4.23,9.36,9.41,9.36h23.73c5.2,0,9.41-4.2,9.41-9.36V9.35c0-5.15-4.22-9.35-9.41-9.35h-23.73c-5.19,0-9.41,4.2-9.41,9.35v23.85Z"/>
      <path class="cls-1" d="M118.56,39.52h-23.78c-3.51,0-6.36-2.84-6.36-6.32V9.35c0-3.47,2.85-6.32,6.36-6.32h23.78c3.5,0,6.34,2.84,6.34,6.32v23.84c0,3.48-2.85,6.32-6.34,6.32"/>
      <path class="cls-2" d="M99.84,7.6c0,.19,.04,.37,.1,.53l3.67,10.11-10.1-3.68c-.17-.06-.35-.1-.53-.1-.84,0-1.52,.69-1.52,1.52v10.59c0,.84,.68,1.52,1.52,1.52,.19,0,.37-.04,.53-.1l10.1-3.68-3.67,10.1c-.06,.17-.1,.35-.1,.53,0,.85,.68,1.52,1.52,1.52h10.6c.84,0,1.52-.68,1.52-1.52,0-.18-.03-.36-.09-.53l-3.68-10.1,10.1,3.68c.17,.06,.35,.1,.53,.1,.84,0,1.52-.68,1.52-1.52V15.98c0-.83-.68-1.52-1.52-1.52-.18,0-.36,.03-.53,.1l-10.1,3.68,3.68-10.11c.06-.16,.09-.35,.09-.53,0-.84-.68-1.52-1.52-1.52h-10.6c-.84,0-1.52,.68-1.52,1.52"/>
      <polygon class="cls-1" points="104.83 18.24 108.49 18.24 108.49 19.58 106.42 19.58 106.42 20.63 108.37 20.63 108.37 21.93 106.42 21.93 106.42 24.32 104.83 24.32 104.83 18.24"/>
      <path class="cls-1" d="M29.84,14.57h4.71v2.76c.52-1.09,1.19-1.91,2.03-2.47,.85-.56,1.78-.85,2.78-.85,.71,0,1.46,.19,2.24,.56l-1.71,4.73c-.65-.32-1.18-.48-1.59-.48-.84,0-1.56,.53-2.14,1.57-.58,1.05-.87,3.1-.87,6.16l.02,1.07v8.86h-5.46V14.57Z"/>
      <path class="cls-1" d="M42.62,14.57h5.56v10.56c0,2.05,.14,3.47,.42,4.28,.29,.8,.74,1.42,1.37,1.86,.62,.44,1.4,.67,2.31,.67s1.7-.22,2.33-.66c.64-.43,1.12-1.08,1.43-1.92,.23-.63,.34-1.98,.34-4.05V14.57h5.5v9.28c0,3.83-.3,6.45-.91,7.86-.74,1.71-1.82,3.04-3.26,3.96-1.44,.92-3.26,1.38-5.48,1.38-2.4,0-4.35-.54-5.83-1.61-1.48-1.07-2.53-2.57-3.13-4.49-.43-1.33-.65-3.75-.65-7.25V14.57Z"/>
      <polygon class="cls-1" points="63.92 14.57 80.69 14.57 70.84 31.83 80.13 31.83 80.13 36.48 62.4 36.48 72.3 19.23 63.92 19.23 63.92 14.57"/>
      <polygon class="cls-1" points="161.95 14.57 178.99 14.57 169.15 31.83 178.43 31.83 178.43 36.48 160.7 36.48 170.6 19.23 161.95 19.23 161.95 14.57"/>
      <path class="cls-1" d="M181.05,14.57h5.56v10.56c0,2.05,.14,3.47,.43,4.28,.28,.8,.74,1.42,1.36,1.86,.62,.44,1.4,.67,2.31,.67s1.69-.22,2.33-.66c.64-.43,1.11-1.08,1.42-1.92,.23-.63,.34-1.98,.34-4.05V14.57h5.5v9.28c0,3.83-.3,6.45-.9,7.86-.74,1.71-1.83,3.04-3.26,3.96-1.44,.92-3.27,1.38-5.48,1.38-2.4,0-4.35-.54-5.83-1.61-1.48-1.07-2.53-2.57-3.13-4.49-.43-1.33-.65-3.75-.65-7.25V14.57Z"/>
      <rect class="cls-1" x="203.33" y="6.08" width="5.5" height="30.4"/>
      <path class="cls-1" d="M215.98,33.64c0,.52-.13,.99-.38,1.44-.26,.44-.61,.79-1.05,1.05-.45,.25-.93,.39-1.45,.39s-.99-.13-1.44-.39c-.45-.26-.8-.61-1.06-1.05-.26-.44-.39-.92-.39-1.44s.13-.99,.39-1.44c.26-.45,.61-.79,1.06-1.05,.45-.26,.93-.39,1.44-.39s1,.13,1.45,.39c.45,.26,.8,.6,1.05,1.05,.26,.44,.38,.92,.38,1.44m-.59,.01c0-.64-.23-1.18-.67-1.63-.44-.44-.99-.67-1.62-.67s-1.18,.22-1.62,.67c-.45,.45-.67,.98-.67,1.61,0,.41,.1,.78,.3,1.13,.2,.35,.48,.63,.84,.83,.35,.21,.74,.31,1.14,.31s.79-.1,1.15-.31c.35-.2,.64-.48,.84-.83,.2-.35,.3-.72,.3-1.12m-3.48-1.58h1.39c.3,0,.51,.03,.65,.1,.14,.06,.25,.17,.33,.31,.08,.14,.12,.31,.12,.51,0,.17-.02,.31-.08,.41-.05,.11-.15,.21-.29,.31,.12,.07,.19,.14,.24,.22,.04,.08,.07,.23,.08,.43,.02,.39,.03,.62,.05,.68,.02,.07,.06,.13,.13,.18h-.78c-.04-.09-.07-.16-.08-.22,0-.06-.01-.15-.02-.3,0-.28-.01-.45-.04-.52-.02-.06-.06-.11-.12-.14-.06-.03-.17-.05-.34-.05h-.57v1.23h-.69v-3.16Zm.69,.6v.75h.58c.22,0,.37-.03,.44-.09,.07-.06,.11-.16,.11-.29s-.04-.23-.11-.28c-.07-.05-.22-.09-.45-.09h-.58Z"/>
      <path class="cls-1" d="M30.17,12V7.18h-.55v-1.12h.55v-.09c0-1.03,.03-1.33,.04-1.41,.04-.32,.17-.56,.39-.75,.22-.18,.54-.27,.97-.27,.3,0,.63,.07,.99,.19v.99c-.18-.05-.33-.07-.45-.07-.2,0-.35,.04-.45,.14-.08,.07-.12,.2-.12,.42v.85s.97,0,.97,0v1.12h-.98v4.82h-1.36Z"/>
      <path class="cls-1" d="M35.72,12.16c-.77,0-1.42-.29-1.99-.89-.56-.6-.84-1.35-.84-2.23s.27-1.68,.81-2.26c.53-.58,1.2-.88,1.97-.88,.36,0,.69,.07,1,.2,.31,.13,.6,.33,.87,.6l.16,.16v-.8h1.35v5.94h-1.35v-.77l-.15,.15c-.29,.27-.58,.47-.88,.6-.29,.12-.61,.18-.95,.18m.27-5.03c-.5,0-.92,.18-1.25,.54-.33,.35-.5,.8-.5,1.35s.17,1.01,.51,1.37c.34,.36,.76,.54,1.24,.54s.93-.18,1.27-.53c.33-.35,.51-.82,.51-1.38s-.17-1.01-.51-1.36c-.33-.35-.76-.53-1.27-.53"/>
      <path class="cls-1" d="M39.74,12V6.06h1.14v.68l.17,.04c.13-.29,.31-.51,.54-.66,.23-.15,.46-.22,.73-.22,.16,0,.34,.04,.51,.11l-.42,1.15c-.16-.07-.28-.1-.39-.1-.28,0-.5,.16-.68,.48-.17,.31-.25,.89-.25,1.77v.3s0,2.38,0,2.38h-1.34Z"/>
      <path class="cls-1" d="M51.13,12v-3.01c0-.72-.09-1.2-.28-1.46-.19-.27-.47-.41-.84-.41-.29,0-.55,.08-.76,.24-.22,.16-.38,.38-.5,.66-.11,.28-.16,.7-.16,1.31v2.67h-1.37v-2.87c0-.55-.04-.96-.13-1.22-.09-.27-.22-.46-.39-.59-.18-.13-.39-.19-.64-.19-.27,0-.52,.08-.75,.24-.22,.16-.39,.39-.5,.68-.11,.3-.16,.75-.16,1.33v2.63h-1.36V6.06h1.36v.85l.16-.17c.26-.28,.54-.49,.84-.62,.31-.14,.65-.21,1.01-.21s.7,.09,.99,.27c.29,.18,.53,.44,.72,.79l.07,.13,.08-.13c.23-.34,.53-.61,.87-.79,.34-.18,.72-.27,1.12-.27s.79,.1,1.1,.29c.32,.19,.54,.44,.68,.76,.14,.31,.2,.82,.2,1.56v3.5h-1.36Z"/>
      <path class="cls-1" d="M55.99,12.16c-.77,0-1.42-.29-1.98-.89-.56-.6-.84-1.35-.84-2.23s.27-1.68,.81-2.26c.55-.59,1.19-.88,1.97-.88,.36,0,.69,.07,1,.2,.31,.14,.6,.33,.86,.6l.16,.16v-.81h1.36v5.94h-1.36v-.76l-.15,.14c-.29,.28-.58,.48-.87,.6-.29,.12-.61,.18-.95,.18m.27-5.03c-.5,0-.92,.18-1.25,.54-.33,.35-.5,.8-.5,1.35s.17,1.01,.5,1.37c.34,.36,.76,.54,1.25,.54s.92-.18,1.26-.53c.33-.35,.5-.81,.5-1.38s-.17-1.01-.5-1.36c-.34-.35-.76-.53-1.27-.53"/>
      <path class="cls-1" d="M63.21,12.16c-1.05,0-1.88-.31-2.47-.93-.59-.62-.89-1.35-.89-2.18,0-.58,.14-1.11,.43-1.6,.29-.48,.69-.87,1.2-1.14,.53-.28,1.09-.42,1.74-.42,.6,0,1.12,.12,1.6,.35,.44,.22,.8,.53,1.09,.93l-1.13,.62c-.23-.22-.46-.39-.7-.5-.25-.1-.53-.15-.86-.15-.59,0-1.08,.18-1.46,.54-.37,.36-.56,.83-.56,1.39s.18,1,.54,1.34c.35,.34,.83,.52,1.4,.52,.68,0,1.23-.23,1.63-.68l1.06,.73c-.63,.78-1.52,1.17-2.65,1.17"/>
      <path class="cls-1" d="M66.88,6.06h1.36v5.94h-1.36V6.06Zm.69-.7c-.24,0-.45-.09-.64-.27-.17-.18-.26-.39-.26-.66,0-.24,.09-.45,.26-.63,.17-.17,.38-.26,.63-.26s.46,.09,.63,.26c.17,.18,.26,.39,.26,.65s-.09,.47-.26,.64c-.17,.18-.38,.27-.62,.27"/>
      <path class="cls-1" d="M71.79,12.16c-.76,0-1.42-.3-1.99-.89-.56-.6-.84-1.35-.84-2.23s.27-1.67,.82-2.26c.55-.59,1.19-.88,1.97-.88,.35,0,.69,.07,.99,.2,.32,.14,.6,.33,.87,.6l.15,.16v-.81h1.35v5.94h-1.35v-.77l-.15,.15c-.29,.27-.58,.47-.87,.6-.29,.12-.61,.18-.95,.18m.27-5.03c-.5,0-.92,.18-1.25,.54-.33,.34-.49,.8-.49,1.35s.17,1.01,.5,1.37c.34,.36,.76,.54,1.25,.54s.93-.18,1.26-.53c.33-.35,.5-.81,.5-1.38s-.17-1.02-.5-1.36c-.33-.35-.76-.53-1.27-.53"/>
      <path class="cls-1" d="M77.83,12.16c-.84,0-1.51-.31-2.02-.95l.83-.9c.17,.19,.37,.34,.59,.46,.25,.14,.47,.2,.69,.2s.41-.06,.55-.17c.15-.12,.22-.25,.22-.41,0-.27-.24-.54-.72-.77l-.52-.26c-.96-.49-1.43-1.07-1.43-1.79,0-.46,.17-.85,.53-1.18,.36-.32,.82-.49,1.37-.49,.39,0,.74,.08,1.08,.25,.32,.16,.59,.38,.81,.66l-.83,.83c-.38-.36-.73-.53-1.05-.53-.2,0-.35,.04-.46,.13-.12,.09-.18,.21-.18,.34,0,.1,.04,.21,.11,.29,.08,.09,.24,.19,.49,.31l.57,.28c.57,.28,.97,.58,1.18,.87,.21,.29,.32,.62,.32,1.02,0,.52-.19,.95-.57,1.29-.38,.35-.89,.53-1.55,.53"/>
      <path class="cls-1" d="M154.19,36.51h5.81l-10.77-30.43h-5.23l-.28,.77-10.5,29.66h5.81l2.19-6.18h10.79l2.19,6.18Zm-11.04-11.66l3.46-9.75,3.46,9.75h-6.91Z"/>
      <path class="cls-1" d="M23.25,27.66c-1.8,2.36-4.65,3.88-7.84,3.88-5.45,0-9.87-4.42-9.87-9.87s4.42-9.87,9.87-9.87c3.27,0,6.17,1.59,7.97,4.05l4.47-3.27c-2.8-3.83-7.33-6.32-12.44-6.32C6.9,6.26,0,13.16,0,21.67s6.9,15.41,15.41,15.41c4.99,0,9.43-2.38,12.25-6.06l-4.41-3.36Z"/>
      <path class="cls-1" d="M145.26,42.91s-.09,0-.14-.01c-.05-.01-.11-.01-.17-.01-.03,0-.05,0-.08-.01-.02,0-.05,0-.08,0-.07,0-.15,0-.23-.01-.08,0-.16,0-.23,0-.66,0-1.25,.15-1.78,.46-.52,.31-1.01,.75-1.45,1.31-.28-.61-.63-1.05-1.06-1.34-.43-.29-.96-.43-1.59-.43h-.22c-.65,.01-1.19,.14-1.61,.39-.43,.25-.83,.61-1.22,1.08-.03,.05-.06,.1-.1,.14-.04,.05-.08,.1-.12,.14v-1.44h-1.92v8.83h2.03v-4.44c0-.13,0-.26,.02-.4,.03-.63,.17-1.22,.43-1.76,.26-.54,.79-.82,1.6-.85h.13c.74,0,1.21,.25,1.43,.76,.21,.51,.34,1.07,.36,1.67v5.01h2.06v-4.64c.01-.6,.11-1.17,.3-1.71,.18-.54,.63-.88,1.34-1.03,.03,0,.06,0,.09-.01,.03,0,.07-.01,.11-.01,.01,0,.03,0,.04-.01,.01,0,.03,0,.05,0,.04,0,.09,0,.14-.01,.05,0,.1-.01,.14-.01,.07,0,.14,0,.21,.01,.07,0,.14,.02,.21,.04,.14,.03,.29,.07,.43,.12,.14,.05,.25,.13,.34,.23,.16,.16,.28,.37,.36,.63,.07,.25,.12,.52,.15,.78,.01,.1,.02,.21,.02,.31v5.32h2.01v-5.94c0-.72-.11-1.38-.33-1.98-.22-.6-.78-.99-1.68-1.18"/>
      <path class="cls-1" d="M155.11,43.13c-.07-.03-.15-.05-.23-.07-.08-.02-.16-.05-.23-.08-.24-.06-.47-.1-.7-.13-.23-.03-.45-.05-.67-.05-1.09,0-2.07,.35-2.94,1.04-.87,.69-1.4,1.63-1.59,2.8,0,.04,0,.09-.01,.13,0,.04-.02,.09-.03,.13v.09s0,.06-.02,.09c-.01,.11-.02,.21-.03,.32,0,.11-.01,.22-.01,.32,0,1.21,.38,2.26,1.15,3.15,.77,.89,1.81,1.38,3.14,1.47l.44-.02c.99,0,1.82-.22,2.52-.66,.69-.44,1.3-1.09,1.81-1.94l-1.68-.95c-.31,.5-.69,.92-1.15,1.27-.46,.35-.97,.52-1.55,.52-.09,0-.18-.01-.29-.04-.1-.02-.21-.04-.33-.05-.68-.15-1.16-.45-1.44-.93-.29-.47-.46-1.02-.52-1.64h7.06v-.18c0-1-.19-1.92-.55-2.77-.37-.85-1.08-1.45-2.14-1.82m-4.22,3.36c.18-.6,.46-1.08,.84-1.41,.38-.34,.91-.51,1.59-.51s1.23,.16,1.63,.48c.39,.31,.63,.8,.74,1.45h-4.79Z"/>
      <path class="cls-1" d="M171.85,42.98c-.18-.03-.35-.05-.53-.07-.18-.01-.35-.02-.51-.02-1.25,0-2.37,.41-3.35,1.24-.98,.83-1.47,1.96-1.47,3.4s.47,2.66,1.4,3.51c.94,.85,2.03,1.28,3.28,1.28,.22,0,.45-.02,.69-.04,.24-.03,.49-.08,.74-.16,.19-.04,.38-.1,.57-.17,.19-.06,.38-.14,.57-.23v-2.32c-.32,.35-.68,.63-1.07,.84-.39,.2-.81,.31-1.27,.31-.03,0-.06,0-.11-.01-.05,0-.09-.01-.13-.03-.01,0-.03,0-.04-.01-.02,0-.04-.01-.07-.01s-.06,0-.09-.01c-.03,0-.06-.01-.09-.01-.77-.1-1.34-.43-1.72-.98-.38-.55-.57-1.2-.57-1.95,0-.93,.27-1.63,.83-2.12,.55-.48,1.18-.73,1.89-.73,.12,0,.23,0,.34,.02,.11,.01,.23,.03,.34,.04,.31,.06,.62,.17,.93,.32,.31,.16,.59,.36,.84,.61v-2.25c-.22-.1-.46-.19-.7-.27-.24-.07-.48-.13-.72-.18"/>
      <path class="cls-1" d="M181.5,48.15c0,.81-.16,1.41-.48,1.79-.32,.38-.91,.59-1.78,.62-.84,0-1.43-.21-1.76-.62-.33-.41-.5-1.01-.5-1.79v-4.97h-2.01v4.44s-.02,.05-.02,.07v.04c0,1.46,.32,2.59,.96,3.39,.64,.8,1.76,1.2,3.37,1.2s2.73-.42,3.34-1.26c.61-.84,.92-2.01,.92-3.53v-4.35h-2.05v4.97Z"/>
      <path class="cls-1" d="M186.47,38.28c-.37,0-.65,.11-.84,.35-.19,.23-.3,.49-.33,.77v.11c0,.31,.1,.59,.29,.84,.19,.25,.49,.38,.88,.38s.7-.13,.89-.38c.2-.25,.3-.53,.3-.84v-.11c-.03-.28-.15-.54-.34-.77-.2-.24-.48-.35-.85-.35"/>
      <rect class="cls-1" x="185.43" y="43.18" width="2.01" height="8.83"/>
      <path class="cls-1" d="M195.99,44.62c-.26-.57-.67-1.01-1.21-1.32-.55-.3-1.12-.45-1.72-.45-.09,0-.17,0-.25,0-.08,.01-.16,.02-.23,.03-.88,.12-1.69,.57-2.42,1.36-.73,.78-1.09,1.91-1.09,3.39v.2s0,.03,.02,.04v.22c.06,1.12,.42,2.1,1.08,2.94,.66,.84,1.59,1.27,2.78,1.3l.11-.02c.63,0,1.19-.12,1.67-.37,.48-.24,.9-.6,1.27-1.09v1.15h2.03v-13.73h-2.03v6.34Zm-.66,5.13c-.48,.53-1.02,.81-1.59,.88h-.24c-.59-.01-1.13-.27-1.61-.76-.49-.5-.73-1.21-.73-2.13,0-.04,0-.1,.01-.16,0-.06,.02-.13,.03-.2,0-.06,0-.12,.01-.17,0-.06,.01-.11,.01-.16,.07-.69,.32-1.26,.73-1.7,.41-.44,.96-.66,1.63-.66h.44c.74,.09,1.26,.42,1.57,.98,.31,.56,.46,1.19,.46,1.87,0,.96-.24,1.7-.73,2.22"/>
      <path class="cls-1" d="M206.85,43.18v1.44c-.26-.57-.67-1.01-1.21-1.32-.54-.3-1.12-.45-1.72-.45-.09,0-.17,0-.25,0-.08,0-.16,.02-.24,.03-.88,.12-1.69,.57-2.42,1.36-.72,.79-1.09,1.92-1.09,3.39v.2s0,.03,.02,.04v.22c.06,1.12,.42,2.1,1.08,2.93,.66,.84,1.6,1.28,2.8,1.3l.09-.02c.63,0,1.19-.12,1.66-.37,.48-.24,.9-.6,1.27-1.09v1.15h2.05v-8.83h-2.05Zm-.64,6.53c-.49,.51-1.02,.79-1.59,.85-.04,.01-.08,.02-.12,.02h-.19c-.57-.02-1.1-.26-1.58-.73-.48-.47-.72-1.17-.72-2.09,0-.05,0-.1,.01-.15,0-.05,.02-.11,.03-.17v-.05c.02-.07,.03-.14,.03-.2,0-.06,.01-.11,.01-.16,.07-.69,.32-1.26,.73-1.7,.42-.44,.96-.66,1.64-.66h.42c.74,.09,1.26,.42,1.58,.98,.32,.56,.48,1.19,.48,1.87,0,.94-.25,1.66-.73,2.17"/>
    </g>
  </g>
</svg>