<?xml version="1.0" encoding="UTF-8"?>
<svg id="Layer_2" data-name="Layer 2" xmlns="http://www.w3.org/2000/svg" viewBox="0 0 29.57 29.57">
  <defs>
    <style>
      .cls-1 {
        fill: #fff;
      }

      .cls-2 {
        fill: #005cb9;
      }

      .cls-3 {
        fill: #ec008c;
      }
    </style>
  </defs>
  <g id="Layer_1-2" data-name="Layer 1">
    <g>
      <path class="cls-3" d="M0,23.07c0,3.58,2.94,6.5,6.54,6.5H23.03c3.61,0,6.54-2.92,6.54-6.5V6.5c0-3.58-2.93-6.5-6.54-6.5H6.54C2.94,0,0,2.92,0,6.5V23.07Z"/>
      <path class="cls-1" d="M23.05,27.46H6.53c-2.44,0-4.42-1.97-4.42-4.39V6.5c0-2.41,1.98-4.39,4.42-4.39H23.05c2.43,0,4.41,1.97,4.41,4.39V23.07c0,2.42-1.98,4.39-4.41,4.39"/>
      <path class="cls-2" d="M10.05,5.28c0,.13,.03,.26,.07,.37l2.55,7.02-7.02-2.56c-.12-.04-.24-.07-.37-.07-.58,0-1.06,.48-1.06,1.06v7.36c0,.58,.47,1.06,1.06,1.06,.13,0,.26-.02,.37-.07l7.02-2.55-2.55,7.02c-.04,.11-.07,.24-.07,.37,0,.59,.47,1.06,1.05,1.06h7.36c.58,0,1.05-.47,1.05-1.06,0-.13-.02-.25-.06-.37l-2.56-7.02,7.02,2.55c.12,.04,.24,.07,.37,.07,.58,0,1.06-.47,1.06-1.06v-7.36c0-.58-.48-1.06-1.06-1.06-.13,0-.25,.02-.37,.07l-7.02,2.56,2.56-7.02c.04-.11,.06-.24,.06-.37,0-.58-.47-1.05-1.05-1.05h-7.36c-.58,0-1.05,.47-1.05,1.05"/>
      <polygon class="cls-1" points="13.52 12.67 16.06 12.67 16.06 13.6 14.62 13.6 14.62 14.33 15.97 14.33 15.97 15.24 14.62 15.24 14.62 16.9 13.52 16.9 13.52 12.67"/>
    </g>
  </g>
</svg>