<?xml version="1.0" encoding="UTF-8"?>
<svg id="Layer_2" data-name="Layer 2" xmlns="http://www.w3.org/2000/svg" viewBox="0 0 124.39 41.53">
  <defs>
    <style>
      .cls-1 {
        fill: #fff;
      }
    </style>
  </defs>
  <g id="Layer_1-2" data-name="Layer 1">
    <g>
      <path class="cls-1" d="M27.23,3.68c0-.74-.42-.95-.95-.42l-2,1.79c-.53,.53-.32,.95,.42,.95h.53v1.37c0,.32-.21,.42-.53,.42h-4c-.53,0-.95-.11-1.37-.32-.95-.53-1.47-1.37-1.47-2.63,0-.84,.32-1.47,.84-2.1,.53-.53,1.26-.84,2.1-.84h5.57c.53,0,.84-.32,.84-.95s-.32-.95-.84-.95h-5.68c-1.37,0-2.52,.42-3.47,1.37-.84,.84-1.37,2-1.37,3.47s.42,2.63,1.37,3.47c.84,.84,2.1,1.26,3.47,1.26h5.78c.42,0,.63-.21,.63-.63V4.73h0v-1.05h.11Z"/>
      <path class="cls-1" d="M30.39,8.94c-.11,.11-.32,.32-.32,.42,0,.32,.95,.21,1.16,.21h4.52c1.47,0,2.63-.42,3.47-1.26s1.26-2,1.26-3.47-.42-2.63-1.37-3.47c-.74-.95-1.89-1.37-3.36-1.37h-6.2c-.42,0-.74,.21-.74,.74v7.36c0,.74,.42,.95,.95,.42l1.89-1.79c.53-.53,.32-.95-.42-.95h-.42V2.42c0-.32,.21-.53,.53-.53h4.42c.84,0,1.47,.32,2,.74,.63,.53,.95,1.26,.95,2.1,0,.63-.11,1.16-.42,1.58-.53,.84-1.37,1.26-2.52,1.26h-3.36c-.21,0-.42,0-.63,.11-.53,.21-.95,.84-1.37,1.26"/>
      <path class="cls-1" d="M19.45,15.56c2.1,1.68,3.05,3.79,3.05,6.52s-1.05,4.94-3.05,6.52c-2.1,1.68-4.73,2.52-8.2,2.42H1.68c-1.05,0-1.68-.53-1.68-1.58V14.41c0-.95,.53-1.37,1.68-1.37H11.25c3.36,0,6.2,.84,8.2,2.52m-13.67,1.05c-.84,0-1.26,.32-1.26,.95v8.94c0,.63,.42,.95,1.37,.95h5.36c2.63,0,4.63-.74,5.89-2.42,.32-.42,.53-.84,.74-1.37s.21-1.05,.21-1.58c0-1.68-.74-3.05-2.1-4-1.26-.95-2.84-1.37-4.73-1.37H5.78v-.11Z"/>
      <path class="cls-1" d="M25.97,14.83c0-1.16,.74-1.79,2.31-1.79s2.31,.63,2.21,1.79v14.41c.11,1.26-.63,1.79-2.21,1.79-1.47,0-2.31-.63-2.31-1.79V14.83Z"/>
      <path class="cls-1" d="M40.27,23.87v5.36c.11,1.26-.63,1.79-2.21,1.79-1.47,0-2.31-.63-2.31-1.79V15.14c0-1.37,.74-2.1,2.31-2.1h12.93c1.26,0,1.89,.53,1.89,1.79,0,1.16-.63,1.79-1.89,1.79h-9.46c-.84,0-1.37,.42-1.37,1.26v2.42h5.47c1.58,0,2.31,.63,2.31,1.79,0,1.26-.84,1.79-2.42,1.79h-5.26Z"/>
      <path class="cls-1" d="M62.56,18.61c-.53-1.26-1.05-1.26-1.58,0l-5.57,11.67c-.32,.53-.74,.84-1.37,.84h-2.31c-.84,0-1.05-.42-.74-1.26l7.78-15.77c.53-.74,1.47-1.05,2.94-1.05s2.42,.42,2.84,1.16l7.99,15.77c.11,.42,.11,.63,0,.84-.11,.21-.42,.32-.84,.32h-2.31c-.63,0-1.16-.32-1.37-.84l-5.47-11.67Z"/>
      <path class="cls-1" d="M94.84,22.19c2-.42,3.15-1.68,3.26-3.79,0-1.16-.32-2.1-1.05-2.94-1.47-1.68-4.1-2.42-7.99-2.52h-10.94c-1.68,0-2.52,.74-2.52,2.31v13.98c0,1.16,.74,1.79,2.31,1.79s2.31-.63,2.21-1.79v-5.36h10.83c1.26,0,2.1,.32,2.42,.84,.11,.11,.11,.21,.21,.42v4.1c0,1.16,.74,1.79,2.21,1.79s2.31-.63,2.31-1.79v-3.58c-.21-1.89-1.26-3.05-3.26-3.47m-1.26-3.15c0,.21-.11,.32-.21,.42-.32,.53-1.16,.84-2.42,.84h-10.94v-2.42c0-.84,.53-1.37,1.58-1.37h7.47c.63,0,1.26,0,1.79,.11,.53,0,.95,.11,1.26,.21,.63,.11,.95,.32,1.16,.53s.32,.53,.32,1.05c0,.21,0,.42,0,.63"/>
      <path class="cls-1" d="M106.3,23.87v2.31c0,.84,.42,1.37,1.37,1.37h14.72c1.26,0,1.89,.63,1.89,1.79s-.63,1.79-2,1.79h-17.98c-1.58,0-2.42-.74-2.42-2.1V15.14c0-1.37,.74-2.1,2.31-2.1h18.3c1.26,0,1.89,.53,1.89,1.79s-.63,1.79-1.89,1.79h-14.72c-.84,0-1.37,.53-1.37,1.26v2.42h10.09c1.58,0,2.31,.63,2.31,1.79,0,1.26-.84,1.79-2.42,1.79h-10.09Z"/>
      <path class="cls-1" d="M3.26,41.43c-1.79,0-3.15-1.37-3.15-3.68s1.26-3.68,3.36-3.68c1.58,0,2.63,.84,2.84,2.31h-.95c-.21-.95-.84-1.47-1.89-1.47-1.47,0-2.42,1.05-2.42,2.84s.95,2.84,2.31,2.84c1.26,0,2.1-.84,2.1-2.21v-.11H3.36v-.74h3.05v3.79h-.63l-.21-.95c-.53,.74-1.37,1.05-2.31,1.05"/>
      <path class="cls-1" d="M33.12,34.38c.63,0,1.05,0,1.47,.21,.53,.32,.95,.95,.95,1.68s-.32,1.26-.95,1.58c.63,.21,.74,.53,.84,1.26l.11,1.16c0,.42,.11,.74,.32,.84v.21h-1.05c-.11-.21-.11-.53-.21-.95l-.11-.95c-.11-1.05-.32-1.16-1.58-1.16h-1.47v2.94h-.95v-6.94h2.63v.11Zm-1.68,3.15h1.58c1.05,0,1.58-.32,1.58-1.26s-.53-1.16-1.58-1.16h-1.58v2.42Z"/>
      <path class="cls-1" d="M59.62,34.38h.95v4.31c0,1.26,.53,1.89,1.79,1.89,1.16,0,1.79-.63,1.79-1.89v-4.31h.95v4.31c0,1.89-.95,2.84-2.84,2.84-1.68,0-2.63-.95-2.63-2.84,0,0,0-4.31,0-4.31Z"/>
      <path class="cls-1" d="M89.17,34.38h2.52c.63,0,1.05,0,1.47,.21,.53,.32,.84,.95,.84,1.79,0,.74-.32,1.37-.84,1.68-.42,.32-.95,.32-1.68,.32h-1.47v2.94h-.95v-6.94h.11Zm2.52,3.15c1.05,0,1.47-.21,1.47-1.16,0-.84-.42-1.16-1.37-1.16h-1.68v2.31s1.58,0,1.58,0Z"/>
      <path class="cls-1" d="M120.92,34.17c2,0,3.26,1.37,3.26,3.68s-1.26,3.68-3.26,3.68-3.26-1.37-3.26-3.68,1.26-3.68,3.26-3.68m0,6.52c1.47,0,2.31-1.05,2.31-2.84s-.84-2.84-2.31-2.84-2.31,1.05-2.31,2.84,.95,2.84,2.31,2.84"/>
    </g>
  </g>
</svg>