<?xml version="1.0" encoding="UTF-8"?>
<svg id="Layer_2" data-name="Layer 2" xmlns="http://www.w3.org/2000/svg" viewBox="0 0 13.03 13.07">
  <defs>
    <style>
      .cls-1 {
        fill: #757575;
      }
    </style>
  </defs>
  <g id="Layer_1-2" data-name="Layer 1">
    <g>
      <path class="cls-1" d="M3.27,13.07c-.02-.76,.26-1.4,.69-2.02-2.06-.79-3.11-2.3-3.18-4.51H0v-1.61H13.03v1.59h-.78c-.07,2.21-1.1,3.71-3.18,4.52,.42,.62,.71,1.26,.69,2.03H3.27Z"/>
      <path class="cls-1" d="M12,0c.34,.39,.66,.77,.99,1.17-.05,.07-.09,.13-.15,.19-.85,.85-1.7,1.71-2.56,2.56-.08,.08-.21,.16-.31,.16-1.13,.01-2.27,0-3.44-.06,1.81-1.33,3.63-2.66,5.46-4.01Z"/>
    </g>
  </g>
</svg>