<?xml version="1.0" encoding="UTF-8"?>
<svg id="Layer_2" data-name="Layer 2" xmlns="http://www.w3.org/2000/svg" viewBox="0 0 29.57 29.2">
  <defs>
    <style>
      .cls-1 {
        fill: #fff;
      }

      .cls-2 {
        fill: #4c9e63;
      }
    </style>
  </defs>
  <g id="Layer_1-2" data-name="Layer 1">
    <g>
      <ellipse class="cls-1" cx="14.79" cy="14.61" rx="14.79" ry="14.56"/>
      <path class="cls-2" d="M14.71,27.77c-7.13,0-12.91-5.89-12.91-13.16S7.58,1.45,14.71,1.45c3.93,0,7.44,1.79,9.81,4.61l1.23-1.25C23.04,1.85,19.13,0,14.79,0,6.62,0,0,6.54,0,14.6s6.62,14.6,14.79,14.6c4.52,0,8.56-2,11.27-5.16l-1.24-1.26c-2.36,3.04-6.02,4.99-10.12,4.99Z"/>
      <polygon class="cls-2" points="17.26 23.33 12.06 23.33 13.29 4.84 18.49 4.84 17.26 23.33"/>
      <polygon class="cls-2" points="5.93 16.62 6.3 11.42 24.74 11.42 24.37 16.62 5.93 16.62"/>
    </g>
  </g>
</svg>