<?xml version="1.0" encoding="utf-8"?>
<!-- Generator: Adobe Illustrator 27.0.0, SVG Export Plug-In . SVG Version: 6.00 Build 0)  -->
<svg version="1.1" id="Capa_1" xmlns="http://www.w3.org/2000/svg" xmlns:xlink="http://www.w3.org/1999/xlink" x="0px" y="0px"
	 width="400.3px" height="134.6px" viewBox="0 0 400.3 134.6" style="enable-background:new 0 0 400.3 134.6;" xml:space="preserve"
	>
<style type="text/css">
	.st0{fill:#568E31;}
	.st1{fill:#2F3A33;}
</style>
<g>
	<path class="st0" d="M87.6,12.8c0-2.4-1.4-3-3-1.4l-6.4,5.7c-1.7,1.7-1,3,1.4,3h1.7v4.4c0,1-0.7,1.4-1.7,1.4H66.6
		c-1.7,0-3-0.3-4.4-1c-3-1.7-4.7-4.4-4.7-8.5c0-2.7,1-4.7,2.7-6.8c1.7-1.7,4.1-2.7,6.8-2.7h16.6h1.4c1.7,0,2.7-1,2.7-3s-1-3-2.7-3
		H66.6c-4.4,0-8.1,1.4-11.2,4.4C52.7,8.1,51,11.8,51,16.5s1.4,8.5,4.4,11.2c2.7,2.7,6.8,4.1,11.2,4.1h18.6c1.4,0,2-0.7,2-2V16.2l0,0
		v-0.3v-3H87.6z"/>
	<path class="st1" d="M97.7,29.7c-0.3,0.3-1,1-1,1.4c0,1,3,0.7,3.7,0.7h14.5c4.7,0,8.5-1.4,11.2-4.1c2.7-2.7,4.1-6.4,4.1-11.2
		s-1.4-8.5-4.4-11.2c-2.4-3-6.1-4.4-10.8-4.4H95c-1.4,0-2.4,0.7-2.4,2.4v19.3V25v2c0,2.4,1.4,3,3,1.4l6.1-5.7c1.7-1.7,1-3-1.4-3H99
		v-0.3V8.8c0-1,0.7-1.7,1.7-1.7h14.2c2.7,0,4.7,1,6.4,2.4c2,1.7,3,4.1,3,6.8c0,2-0.3,3.7-1.4,5.1c-1.7,2.7-4.4,4.1-8.1,4.1h-10.8
		c-0.7,0-1.4,0-2,0.3C100.4,26.3,99,28.4,97.7,29.7"/>
	<path class="st1" d="M62.5,51c6.8,5.4,9.8,12.2,9.8,21s-3.4,15.9-9.8,21c-6.8,5.4-15.2,8.1-26.4,7.8H5.4C2,100.7,0,99,0,95.6V47.3
		c0-3,1.7-4.4,5.4-4.4h30.8C47,42.9,56.1,45.6,62.5,51 M18.6,54.4c-2.7,0-4.1,1-4.1,3v28.7c0,2,1.4,3,4.4,3h17.2
		c8.5,0,14.9-2.4,18.9-7.8c1-1.4,1.7-2.7,2.4-4.4s0.7-3.4,0.7-5.1c0-5.4-2.4-9.8-6.8-12.8c-4.1-3-9.1-4.4-15.2-4.4H18.6V54.4z"/>
	<path class="st1" d="M83.5,48.6c0-3.7,2.4-5.7,7.4-5.7s7.4,2,7.1,5.7V95c0.3,4.1-2,5.7-7.1,5.7c-4.7,0-7.4-2-7.4-5.7L83.5,48.6z"/>
	<path class="st1" d="M129.5,77.7V95c0.3,4.1-2,5.7-7.1,5.7c-4.7,0-7.4-2-7.4-5.7V49.7c0-4.4,2.4-6.8,7.4-6.8H164
		c4.1,0,6.1,1.7,6.1,5.7c0,3.7-2,5.7-6.1,5.7h-30.4c-2.7,0-4.4,1.4-4.4,4.1v7.8h17.6c5.1,0,7.4,2,7.4,5.7c0,4.1-2.7,5.7-7.8,5.7
		H129.5z"/>
	<path class="st1" d="M201.1,60.8c-1.7-4.1-3.4-4.1-5.1,0l-17.9,37.5c-1,1.7-2.4,2.7-4.4,2.7h-7.4c-2.7,0-3.4-1.4-2.4-4.1l25-50.7
		c1.7-2.4,4.7-3.4,9.5-3.4c4.7,0,7.8,1.4,9.1,3.7l25.7,50.7c0.3,1.4,0.3,2,0,2.7s-1.4,1-2.7,1h-7.4c-2,0-3.7-1-4.4-2.7L201.1,60.8z"
		/>
	<path class="st1" d="M304.9,72.3c6.4-1.4,10.1-5.4,10.5-12.2c0-3.7-1-6.8-3.4-9.5c-4.7-5.4-13.2-7.8-25.7-8.1h-35.2
		c-5.4,0-8.1,2.4-8.1,7.4v45c0,3.7,2.4,5.7,7.4,5.7s7.4-2,7.1-5.7V77.7l0,0h34.8c4.1,0,6.8,1,7.8,2.7c0.3,0.3,0.3,0.7,0.7,1.4
		c0,0.7,0,1,0,1.7V95c0,3.7,2.4,5.7,7.1,5.7c4.7,0,7.4-2,7.4-5.7V83.5C314.7,77.4,311.3,73.7,304.9,72.3 M300.9,62.2
		c0,0.7-0.3,1-0.7,1.4c-1,1.7-3.7,2.7-7.8,2.7h-35.2v-7.8c0-2.7,1.7-4.4,5.1-4.4h24c2,0,4.1,0,5.7,0.3c1.7,0,3,0.3,4.1,0.7
		c2,0.3,3,1,3.7,1.7s1,1.7,1,3.4C300.9,60.8,300.9,61.5,300.9,62.2"/>
	<path class="st1" d="M341.8,77.7v7.4c0,2.7,1.4,4.4,4.4,4.4h47.3c4.1,0,6.1,2,6.1,5.7s-2,5.7-6.4,5.7h-57.8c-5.1,0-7.8-2.4-7.8-6.8
		V49.7c0-4.4,2.4-6.8,7.4-6.8h58.8c4.1,0,6.1,1.7,6.1,5.7s-2,5.7-6.1,5.7h-47.3c-2.7,0-4.4,1.7-4.4,4.1v7.8h32.5
		c5.1,0,7.4,2,7.4,5.7c0,4.1-2.7,5.7-7.8,5.7H341.8z"/>
	<path class="st1" d="M10.5,134.2c-5.7,0-10.1-4.4-10.1-11.8c0-7.4,4.1-11.8,10.8-11.8c5.1,0,8.5,2.7,9.1,7.4h-3
		c-0.7-3-2.7-4.7-6.1-4.7c-4.7,0-7.8,3.4-7.8,9.1s3,9.1,7.4,9.1c4.1,0,6.8-2.7,6.8-7.1V124h-6.8v-2.4h9.8v12.2h-2l-0.7-3
		C16.2,133.2,13.5,134.2,10.5,134.2"/>
	<path class="st1" d="M106.5,111.5c2,0,3.4,0,4.7,0.7c1.7,1,3,3,3,5.4c0,2.4-1,4.1-3,5.1c2,0.7,2.4,1.7,2.7,4.1l0.3,3.7
		c0,1.4,0.3,2.4,1,2.7v0.7h-3.4c-0.3-0.7-0.3-1.7-0.7-3l-0.3-3c-0.3-3.4-1-3.7-5.1-3.7h-4.7v9.5h-3v-22.3h8.5V111.5z M101.1,121.7
		h5.1c3.4,0,5.1-1,5.1-4.1c0-3-1.7-3.7-5.1-3.7h-5.1V121.7z"/>
	<path class="st1" d="M191.7,111.5h3v13.9c0,4.1,1.7,6.1,5.7,6.1c3.7,0,5.7-2,5.7-6.1v-13.9h3v13.9c0,6.1-3,9.1-9.1,9.1
		c-5.4,0-8.5-3-8.5-9.1C191.7,125.4,191.7,111.5,191.7,111.5z"/>
	<path class="st1" d="M286.7,111.5h7.4h0.7c2,0,3.4,0,4.7,0.7c1.7,1,2.7,3,2.7,5.7c0,2.4-1,4.4-2.7,5.4c-1.4,1-3,1-5.4,1h-4.7v9.5
		h-3v-22.3H286.7z M294.8,121.7c3.4,0,4.7-0.7,4.7-3.7c0-2.7-1.4-3.7-4.4-3.7h-5.4v7.4C289.7,121.7,294.8,121.7,294.8,121.7z"/>
	<path class="st1" d="M388.8,110.8c6.4,0,10.5,4.4,10.5,11.8c0,7.4-4.1,11.8-10.5,11.8s-10.5-4.4-10.5-11.8
		C378.3,115.2,382.3,110.8,388.8,110.8 M388.8,131.8c4.7,0,7.4-3.4,7.4-9.1s-2.7-9.1-7.4-9.1c-4.7,0-7.4,3.4-7.4,9.1
		S384.4,131.8,388.8,131.8"/>
</g>
</svg>
