<?xml version="1.0" encoding="UTF-8"?>
<svg id="Layer_2" data-name="Layer 2" xmlns="http://www.w3.org/2000/svg" viewBox="0 0 11.73 9.13">
  <defs>
    <style>
      .cls-1 {
        fill: #757575;
      }
    </style>
  </defs>
  <g id="Layer_1-2" data-name="Layer 1">
    <path class="cls-1" d="M0,0H11.73V2.6c-.09-.07-.15-.11-.22-.16-.08,.08-.15,.14-.22,.21-1.33,1.33-2.65,2.65-3.98,3.98-.33,.33-.76,.61-.62,1.19H0V0ZM2.49,6.28h.83c0-.17,.02-.33,.02-.5,.11-.04,.21-.08,.31-.12,.42-.18,.63-.51,.66-.95,.02-.44-.19-.77-.59-.96-.24-.11-.49-.19-.73-.29-.17-.07-.34-.12-.5-.2-.19-.09-.16-.24,0-.29,.24-.07,.49-.09,.74-.08,.24,.01,.47,.1,.73,.15,.07-.26,.13-.51,.2-.78-.12-.04-.22-.07-.33-.1q-.46-.12-.51-.59s-.02-.03-.03-.04h-.78c0,.06-.02,.09-.01,.13,.03,.26-.03,.41-.33,.51-.41,.13-.62,.49-.65,.92-.03,.42,.19,.72,.56,.89,.39,.18,.79,.31,1.18,.48,.09,.04,.14,.16,.22,.24-.09,.08-.18,.22-.28,.22-.27,0-.54-.03-.8-.09-.24-.05-.48-.14-.74-.23-.09,.28-.16,.52-.24,.78,.19,.07,.35,.16,.53,.19,.37,.08,.71,.17,.54,.69Zm2.72-3.04h3.93v-.63h-3.93v.63Zm0,1.97h1.96v-.63h-1.96v.63Z"/>
    <path class="cls-1" d="M10.27,4.61c.49,.49,.96,.96,1.44,1.45-.32,.32-.66,.66-1,1-.56,.56-1.12,1.12-1.68,1.68-.08,.08-.19,.16-.29,.18-.5,.08-1,.15-1.55,.22,.05-.35,.11-.68,.13-1.01,.02-.49,.24-.83,.59-1.16,.81-.76,1.57-1.56,2.36-2.35Z"/>
  </g>
</svg>