<?xml version="1.0" encoding="UTF-8"?>
<svg id="Layer_2" data-name="Layer 2" xmlns="http://www.w3.org/2000/svg" viewBox="0 0 235.68 49.19">
  <defs>
    <style>
      .cls-1 {
        fill: #fff;
      }

      .cls-2 {
        fill: #8d201a;
      }
    </style>
  </defs>
  <g id="Layer_1-2" data-name="Layer 1">
    <g>
      <g>
        <g>
          <polygon class="cls-1" points="235.68 49.19 234.85 49.19 199.46 49.19 198.62 49.19 198.62 48.34 198.62 .85 198.62 0 199.46 0 234.85 0 235.68 0 235.68 .85 235.68 48.34 235.68 49.19 235.68 49.19"/>
          <rect class="cls-2" x="199.46" y=".85" width="35.39" height="47.49"/>
          <polygon class="cls-1" points="233.34 22.93 221.69 22.27 219.37 21.62 220.4 19.67 218.44 20.65 217.8 18.3 217.16 6.64 216.52 18.3 215.87 20.65 213.92 19.67 214.95 21.62 212.63 22.27 200.97 22.93 212.63 23.57 214.95 24.23 213.92 26.18 215.87 25.18 216.52 27.54 217.16 42.27 217.8 27.54 218.44 25.18 220.4 26.18 219.37 24.23 221.69 23.57 233.34 22.93"/>
        </g>
        <g>
          <path class="cls-1" d="M35.39,10.1c-1.13-2.01-3.2-3.03-6.26-3.03-1.69,0-3.1,.37-4.23,1.06-.66,.41-1.59,1.17-2.41,2.19V.09h-3.49V28.08h3.49v-11.21c-.05-2.65,.81-4.41,1.98-5.38,1.18-.95,2.5-1.42,3.98-1.42,1.77,0,2.98,.54,3.64,1.62,.41,.68,.6,1.75,.63,3.21l-.02,13.16h3.64V14.68c-.02-1.96-.35-3.46-.96-4.58Z"/>
          <path class="cls-1" d="M57.98,25.27c-.21,.02-.39,.03-.56,.03-.49,0-.81-.09-.98-.32-.16-.21-.43-.47-.43-.84l-.02-11.52c-.03-1.89-.86-3.28-2.46-4.19-1.64-.92-3.73-1.37-6.33-1.36-2.21,0-4.14,.5-5.83,1.45-1.66,.97-2.51,2.7-2.52,5.19h3.42c.13-1.04,.4-1.82,.86-2.32,.78-.95,2.15-1.42,4.09-1.43,1.65,0,2.93,.24,3.84,.76,.91,.53,1.36,1.37,1.39,2.51,.01,.56-.05,.97-.26,1.3-.26,.52-.85,.86-1.68,.97l-5.87,.65c-2.05,.26-3.72,.88-4.97,1.91-1.24,1.01-1.86,2.45-1.83,4.3,.03,1.69,.71,3.11,2.02,4.23,1.31,1.11,2.98,1.67,5.02,1.66,1.68,0,3.24-.33,4.63-.99,1.4-.66,2.48-1.43,3.19-2.34,.15,.83,.36,1.41,.65,1.86,.61,.81,1.53,1.22,2.79,1.22,.51,0,.94-.03,1.23-.04,.3-.05,.74-.15,1.3-.29l-.05-2.48c-.21,.05-.43,.07-.63,.1Zm-8.56-.7c-1.21,.54-2.48,.81-3.77,.81-1.05,0-1.99-.28-2.79-.84-.79-.54-1.17-1.31-1.19-2.25-.02-1.26,.53-2.18,1.67-2.76,.67-.35,1.68-.61,3.01-.78l2.22-.28c.69-.07,1.38-.19,2.09-.38,.7-.18,1.28-.4,1.74-.68l.06,2.7c.03,2.06-.99,3.57-3.03,4.46Z"/>
          <path class="cls-1" d="M120.58,25.27c-.19,.02-.38,.03-.54,.03-.5,0-.82-.11-.98-.32-.17-.21-.25-.49-.25-.84l-.21-11.51c-.03-1.88-.85-3.28-2.45-4.18-1.63-.92-3.74-1.38-6.31-1.38-2.24,0-4.18,.52-5.84,1.47-1.67,.97-2.52,2.68-2.55,5.17h3.45c.11-1.04,.4-1.82,.84-2.32,.78-.95,2.14-1.42,4.07-1.42,1.68,0,2.97,.25,3.87,.76,.91,.52,1.36,1.36,1.38,2.5,0,.54-.07,.97-.24,1.3-.28,.51-.85,.84-1.69,.97l-5.88,.65c-2.05,.26-3.72,.88-4.96,1.91-1.25,1-1.86,2.44-1.83,4.28,.03,1.69,.7,3.11,2,4.22,1.33,1.12,2.99,1.68,5.02,1.68,1.69,0,3.25-.33,4.64-.99,1.39-.65,2.44-1.43,3.18-2.35,.16,.83,.38,1.42,.68,1.86,.58,.82,1.49,1.23,2.77,1.22,.52,0,.93-.03,1.22-.04,.29-.04,.74-.13,1.3-.28l-.04-2.48c-.22,.05-.43,.07-.66,.1Zm-8.54-.7c-1.21,.53-2.46,.81-3.76,.81-1.08,0-2.02-.27-2.79-.84-.79-.54-1.19-1.31-1.21-2.25-.02-1.27,.54-2.18,1.68-2.76,.68-.35,1.68-.6,3.03-.77l2.22-.29c.68-.06,1.37-.19,2.08-.37,.71-.18,1.28-.4,1.72-.68l.06,2.7c.03,2.06-.97,3.56-3.01,4.46Z"/>
          <path class="cls-1" d="M68.61,6.96c-.14,0-.24,0-.33,0-1.4-.01-2.65,.47-3.73,1.45-1.05,.93-1.73,1.77-1.97,2.45v-3.77h-3.39V28.08h3.39V15.89c-.01-1.43,.7-2.67,1.64-3.75,.95-1.1,2.34-1.61,4.1-1.62,.22,0,.42,0,.6,.01,.19,.01,.4,.01,.61,.04l.03-3.5c-.39-.02-.78-.09-.95-.11Z"/>
          <path class="cls-1" d="M134.58,23.87c-.89,.84-2.11,1.27-3.63,1.26-2.01,.02-3.5-.65-4.45-2.02-.95-1.35-1.45-3.03-1.49-5.02-.03-1.97,.28-3.62,.91-4.95,.98-2.08,2.65-3.12,5.03-3.12,1.73,0,2.98,.39,3.78,1.21,.77,.79,1.3,1.83,1.56,3.04h3.56c-.36-2.64-1.33-4.5-2.91-5.58-1.55-1.09-3.59-1.62-6.08-1.61-2.88,0-5.26,.96-7.1,2.88-1.87,1.94-2.75,4.65-2.7,8.1,.06,2.83,.96,5.2,2.71,7.08,1.74,1.89,4.05,2.82,6.94,2.82,2.56,0,4.66-.62,6.27-1.83,1.47-1.07,2.41-2.73,2.85-4.97h-3.63c-.35,1.1-.87,2.01-1.61,2.71Z"/>
          <path class="cls-1" d="M148.99,23.66l-6.01-16.52h-4.05l8.21,20.94c-.17,.42-.21,.55-.62,1.47-.37,.92-.61,1.42-.68,1.51-.2,.3-.47,.55-.78,.78-.29,.2-.78,.29-1.44,.29-.21,0-.46-.04-.72-.07-.29-.02-.75-.13-1.37-.29l.06,3.06c.4,.1,.74,.18,1.01,.22,.26,.05,.64,.05,1.14,.05,2.05,0,3.49-.57,4.32-1.68,.75-1.03,1.98-3.67,3.99-8.85,.81-2.17,1.83-4.98,3.07-8.42,1.62-4.56,2.75-7.75,3.22-9.02h-3.88l-5.48,16.52Z"/>
          <path class="cls-1" d="M181.87,17.35c-.88-.54-2.58-1.1-5.09-1.71l-2.34-.52c-1-.25-1.8-.52-2.32-.81-.9-.54-1.36-1.22-1.36-2.11-.02-.78,.3-1.44,.99-1.91,.68-.49,1.67-.74,3.01-.75,1.98,0,3.41,.43,4.22,1.31,.51,.63,.82,1.3,.87,2.05h3.32c0-1.3-.45-2.47-1.35-3.59-1.42-1.76-3.72-2.61-6.88-2.61-2.42,0-4.33,.59-5.73,1.74-1.41,1.19-2.09,2.72-2.07,4.61,.03,1.58,.8,2.85,2.33,3.76,.86,.51,2.2,1,3.98,1.41l2.81,.67c1.51,.35,2.52,.67,3.03,.93,.81,.45,1.2,1.11,1.23,1.95,.02,1.15-.45,1.99-1.46,2.53-.98,.55-2.11,.82-3.43,.82-2.18,0-3.73-.54-4.65-1.6-.49-.59-.79-1.45-.92-2.54l-3.36,.02c.13,1.96,.83,3.62,2.16,4.96,1.33,1.35,3.53,2,6.66,2,2.88,0,5.04-.64,6.43-1.96,1.4-1.29,2.08-2.83,2.06-4.61-.03-1.83-.75-3.16-2.14-4.04Z"/>
          <path class="cls-1" d="M186.17,25.06c.25,0,.5,.07,.73,.2,.25,.12,.43,.31,.56,.55,.14,.24,.21,.49,.21,.76,0,.25-.07,.51-.21,.75-.12,.23-.3,.42-.54,.55-.24,.13-.48,.21-.74,.21-.25,0-.51-.08-.74-.21-.24-.13-.42-.32-.56-.55-.13-.24-.19-.5-.19-.75,0-.27,.06-.51,.2-.76,.13-.25,.32-.43,.56-.55,.23-.13,.48-.2,.73-.2Zm0,.25c-.2,0-.42,.05-.61,.16-.2,.11-.35,.26-.47,.46-.12,.21-.17,.42-.17,.64s.05,.42,.17,.62c.1,.2,.25,.35,.45,.47,.2,.11,.4,.17,.62,.17s.43-.06,.63-.17c.19-.12,.35-.27,.46-.47,.1-.2,.16-.41,.16-.62s-.06-.43-.16-.64c-.12-.2-.27-.35-.48-.46-.19-.11-.4-.16-.61-.16Zm-.66,2.08v-1.62h.56c.19,0,.32,.02,.41,.05,.09,.03,.15,.08,.2,.15,.04,.08,.07,.16,.07,.25,0,.11-.04,.21-.13,.31-.08,.09-.19,.14-.33,.15,.06,.02,.09,.05,.13,.08,.06,.06,.14,.17,.24,.33l.19,.31h-.32l-.14-.26c-.11-.2-.2-.32-.27-.37-.05-.04-.12-.06-.2-.06h-.16v.68h-.26Zm.26-.91h.31c.15,0,.26-.02,.31-.07,.05-.05,.08-.11,.08-.19,0-.04-.01-.08-.04-.12-.02-.03-.07-.06-.11-.09-.05-.02-.13-.03-.26-.03h-.3v.49Z"/>
          <path class="cls-1" d="M17.73,17.03c-.06-3.2-.88-5.66-2.48-7.37-1.59-1.74-3.52-2.6-5.77-2.6-1.52,0-2.84,.36-3.97,1.1-.76,.48-1.49,1.15-2.14,2.04l-.06-3.14H0v27.99H3.37v-9.99c.74,.88,1.76,1.67,2.33,2.03,1.04,.66,2.3,.98,3.79,.98,1.92,0,3.57-.59,5-1.75,2.24-1.87,3.31-4.96,3.24-9.29Zm-4.87,6.22c-.99,1.31-2.28,1.97-3.83,1.97-2.29,0-3.87-1.02-4.77-3.1-.49-1.08-.74-2.41-.76-3.95-.04-1.94,.17-3.52,.62-4.76,.79-2.34,2.36-3.49,4.65-3.5,2.3,.01,3.89,1.09,4.79,3.29,.47,1.15,.73,2.52,.74,4.14,.04,2.61-.43,4.59-1.43,5.9Z"/>
          <path class="cls-1" d="M70.7,28.08V7.08h3.17v3.3c.66-1,1.54-1.81,2.63-2.43,1.09-.62,2.34-.92,3.73-.92,1.56,0,2.83,.32,3.83,.95,1,.63,1.7,1.52,2.11,2.65,1.66-2.4,3.82-3.61,6.48-3.61,2.08,0,3.68,.56,4.79,1.7,1.12,1.13,1.68,2.86,1.68,5.22v14.14h-3.53V15.11c0-1.39-.12-2.41-.35-3.02-.22-.61-.65-1.11-1.26-1.48-.61-.37-1.31-.55-2.13-.55-1.47,0-2.7,.48-3.68,1.44-.97,.97-1.47,2.51-1.47,4.63v11.96h-3.55V14.7c0-1.55-.29-2.71-.87-3.49-.58-.77-1.53-1.15-2.85-1.15-1,0-1.93,.25-2.77,.77-.86,.52-1.47,1.27-1.85,2.27-.38,.99-.57,2.43-.57,4.3v10.69h-3.56Z"/>
          <polygon class="cls-1" points="168.34 7.04 164.75 6.83 164.04 6.63 164.35 6.04 163.74 6.34 163.55 5.62 163.36 2.01 163.16 5.62 162.96 6.34 162.36 6.04 162.67 6.63 161.96 6.83 158.37 7.04 161.96 7.24 162.67 7.44 162.36 8.04 162.96 7.74 163.16 8.46 163.36 13 163.55 8.46 163.74 7.74 164.35 8.04 164.04 7.44 164.75 7.24 168.34 7.04"/>
        </g>
      </g>
      <g>
        <path class="cls-1" d="M66.85,46.92v-9.32h1.23v9.32h-1.23Z"/>
        <path class="cls-1" d="M74.49,46.92v-.85c-.43,.67-1.06,1-1.89,1-.54,0-1.03-.15-1.49-.44-.45-.3-.8-.71-1.05-1.24-.25-.53-.37-1.14-.37-1.83s.11-1.29,.34-1.83c.22-.55,.56-.97,1.01-1.26,.45-.29,.95-.44,1.51-.44,.41,0,.77,.09,1.09,.26,.32,.17,.58,.4,.78,.67v-3.34h1.14v9.32h-1.06Zm-3.62-3.37c0,.87,.18,1.51,.55,1.94,.36,.43,.79,.64,1.29,.64s.93-.2,1.27-.61c.35-.41,.53-1.03,.53-1.87,0-.92-.18-1.6-.53-2.03-.36-.43-.79-.65-1.32-.65s-.93,.21-1.27,.62c-.34,.42-.51,1.07-.51,1.96Z"/>
        <path class="cls-1" d="M81.98,44.75l1.18,.15c-.19,.69-.53,1.23-1.04,1.61-.5,.38-1.15,.57-1.93,.57-.99,0-1.77-.3-2.35-.91-.58-.61-.87-1.46-.87-2.56s.29-2.02,.88-2.64c.59-.63,1.34-.94,2.28-.94s1.64,.31,2.21,.92c.57,.62,.86,1.48,.86,2.59,0,.07,0,.17,0,.31h-5.04c.04,.74,.25,1.31,.63,1.7,.38,.39,.85,.59,1.41,.59,.42,0,.78-.11,1.08-.33,.3-.22,.53-.57,.71-1.06Zm-3.76-1.85h3.77c-.05-.57-.2-.99-.43-1.28-.37-.44-.84-.66-1.42-.66-.53,0-.97,.18-1.33,.53-.36,.35-.56,.82-.59,1.41Z"/>
        <path class="cls-1" d="M89,46.09c-.42,.36-.83,.61-1.22,.76-.39,.15-.81,.22-1.26,.22-.74,0-1.31-.18-1.71-.54-.4-.36-.6-.83-.6-1.39,0-.33,.07-.63,.23-.91,.15-.27,.35-.49,.59-.66,.24-.16,.52-.29,.82-.37,.22-.06,.56-.12,1.02-.17,.92-.11,1.6-.24,2.04-.39,0-.16,0-.26,0-.3,0-.47-.11-.79-.32-.99-.29-.26-.73-.39-1.3-.39-.54,0-.94,.09-1.19,.28-.26,.19-.45,.52-.57,1l-1.12-.15c.1-.48,.27-.87,.5-1.16,.23-.29,.57-.52,1.01-.68,.44-.16,.95-.24,1.53-.24s1.04,.07,1.4,.2c.36,.14,.63,.31,.8,.51s.29,.46,.36,.78c.04,.2,.06,.55,.06,1.06v1.53c0,1.06,.02,1.74,.07,2.02,.05,.28,.15,.55,.29,.81h-1.2c-.12-.24-.2-.52-.23-.83Zm-.09-2.56c-.42,.17-1.04,.31-1.87,.43-.47,.07-.8,.14-1,.23-.19,.08-.35,.21-.45,.37-.11,.16-.16,.34-.16,.54,0,.31,.12,.56,.35,.76,.23,.2,.57,.31,1.01,.31s.83-.1,1.18-.29c.34-.19,.6-.46,.76-.79,.12-.26,.19-.64,.19-1.14v-.42Z"/>
        <path class="cls-1" d="M91.38,44.91l1.13-.18c.06,.45,.24,.8,.53,1.04,.29,.24,.7,.36,1.22,.36s.92-.11,1.17-.32c.25-.21,.38-.47,.38-.75,0-.26-.11-.46-.34-.61-.16-.1-.55-.23-1.17-.39-.84-.21-1.42-.4-1.75-.55-.32-.16-.57-.37-.74-.64-.17-.27-.25-.58-.25-.91,0-.3,.07-.58,.21-.84,.14-.26,.33-.47,.56-.64,.18-.13,.42-.24,.73-.33,.31-.09,.64-.14,.99-.14,.53,0,1,.08,1.4,.23,.4,.15,.7,.36,.89,.62,.19,.26,.32,.61,.4,1.05l-1.12,.15c-.05-.35-.2-.62-.44-.81-.24-.19-.59-.29-1.03-.29-.53,0-.9,.09-1.12,.26-.23,.17-.34,.38-.34,.61,0,.15,.05,.28,.14,.4,.09,.12,.24,.22,.44,.31,.11,.04,.45,.14,1.01,.29,.81,.22,1.37,.39,1.7,.53,.32,.14,.57,.34,.75,.6,.18,.26,.27,.59,.27,.98s-.11,.74-.33,1.08c-.22,.34-.54,.6-.96,.78-.42,.18-.9,.28-1.42,.28-.88,0-1.55-.18-2.01-.55-.46-.37-.75-.9-.88-1.62Z"/>
        <path class="cls-1" d="M101.94,46.92v-9.32h1.15v9.32h-1.15Z"/>
        <path class="cls-1" d="M104.84,46.92v-9.32h1.14v9.32h-1.14Z"/>
        <path class="cls-1" d="M112.38,44.75l1.18,.15c-.19,.69-.53,1.23-1.04,1.61-.5,.38-1.15,.57-1.93,.57-.99,0-1.77-.3-2.35-.91-.58-.61-.87-1.46-.87-2.56s.29-2.02,.88-2.64c.59-.63,1.34-.94,2.28-.94s1.64,.31,2.21,.92c.57,.62,.86,1.48,.86,2.59,0,.07,0,.17,0,.31h-5.04c.04,.74,.25,1.31,.63,1.7,.38,.39,.85,.59,1.41,.59,.42,0,.78-.11,1.08-.33,.3-.22,.53-.57,.71-1.06Zm-3.76-1.85h3.77c-.05-.57-.2-.99-.43-1.28-.37-.44-.84-.66-1.42-.66-.53,0-.97,.18-1.33,.53-.36,.35-.56,.82-.59,1.41Z"/>
        <path class="cls-1" d="M115,46.92v-6.75h1.03v.96c.5-.74,1.21-1.11,2.15-1.11,.41,0,.78,.07,1.12,.22,.34,.15,.6,.34,.76,.58,.17,.24,.29,.52,.36,.85,.04,.21,.06,.58,.06,1.11v4.15h-1.14v-4.11c0-.47-.04-.81-.13-1.05-.09-.23-.25-.42-.47-.55-.23-.14-.49-.21-.8-.21-.49,0-.91,.16-1.26,.46-.35,.31-.53,.9-.53,1.76v3.69h-1.15Z"/>
        <path class="cls-1" d="M126.65,46.09c-.42,.36-.83,.61-1.22,.76-.39,.15-.81,.22-1.26,.22-.74,0-1.31-.18-1.71-.54-.4-.36-.6-.83-.6-1.39,0-.33,.07-.63,.23-.91,.15-.27,.35-.49,.59-.66,.25-.16,.52-.29,.82-.37,.22-.06,.56-.12,1.02-.17,.93-.11,1.61-.24,2.04-.39,0-.16,0-.26,0-.3,0-.47-.11-.79-.32-.99-.29-.26-.73-.39-1.3-.39-.54,0-.94,.09-1.19,.28-.26,.19-.45,.52-.57,1l-1.12-.15c.1-.48,.27-.87,.5-1.16,.23-.29,.57-.52,1.01-.68,.44-.16,.95-.24,1.53-.24s1.04,.07,1.4,.2c.36,.14,.63,.31,.8,.51,.17,.21,.29,.46,.36,.78,.04,.2,.06,.55,.06,1.06v1.53c0,1.06,.02,1.74,.07,2.02,.05,.28,.14,.55,.29,.81h-1.19c-.12-.24-.2-.52-.23-.83Zm-.09-2.56c-.42,.17-1.04,.31-1.87,.43-.47,.07-.81,.14-1,.23-.19,.08-.35,.21-.45,.37-.11,.16-.16,.34-.16,.54,0,.31,.12,.56,.35,.76,.23,.2,.57,.31,1.01,.31s.83-.1,1.18-.29c.34-.19,.6-.46,.76-.79,.12-.26,.19-.64,.19-1.14v-.42Z"/>
        <path class="cls-1" d="M129.03,44.91l1.13-.18c.06,.45,.24,.8,.53,1.04,.29,.24,.7,.36,1.22,.36s.92-.11,1.17-.32c.25-.21,.38-.47,.38-.75,0-.26-.11-.46-.34-.61-.16-.1-.55-.23-1.17-.39-.84-.21-1.42-.4-1.74-.55-.32-.16-.57-.37-.74-.64-.17-.27-.25-.58-.25-.91,0-.3,.07-.58,.21-.84,.14-.26,.33-.47,.56-.64,.18-.13,.42-.24,.73-.33,.31-.09,.64-.14,.99-.14,.53,0,.99,.08,1.4,.23,.4,.15,.7,.36,.89,.62,.19,.26,.32,.61,.39,1.05l-1.12,.15c-.05-.35-.2-.62-.44-.81-.24-.19-.59-.29-1.03-.29-.52,0-.9,.09-1.12,.26-.23,.17-.34,.38-.34,.61,0,.15,.05,.28,.14,.4,.09,.12,.24,.22,.44,.31,.11,.04,.45,.14,1.01,.29,.81,.22,1.37,.39,1.7,.53,.32,.14,.57,.34,.75,.6,.18,.26,.27,.59,.27,.98s-.11,.74-.33,1.08c-.22,.34-.54,.6-.96,.78-.42,.18-.89,.28-1.42,.28-.88,0-1.55-.18-2.01-.55-.46-.37-.75-.9-.88-1.62Z"/>
        <path class="cls-1" d="M144,46.92v-.85c-.43,.67-1.06,1-1.89,1-.54,0-1.03-.15-1.49-.44-.45-.3-.8-.71-1.05-1.24-.25-.53-.37-1.14-.37-1.83s.11-1.29,.34-1.83c.23-.55,.56-.97,1.01-1.26,.45-.29,.95-.44,1.51-.44,.41,0,.77,.09,1.09,.26,.32,.17,.57,.4,.77,.67v-3.34h1.14v9.32h-1.06Zm-3.62-3.37c0,.87,.18,1.51,.55,1.94,.37,.43,.8,.64,1.29,.64s.93-.2,1.28-.61c.35-.41,.52-1.03,.52-1.87,0-.92-.18-1.6-.53-2.03-.36-.43-.8-.65-1.32-.65s-.93,.21-1.27,.62c-.34,.42-.51,1.07-.51,1.96Z"/>
        <path class="cls-1" d="M151.48,44.75l1.18,.15c-.19,.69-.53,1.23-1.04,1.61-.5,.38-1.15,.57-1.93,.57-.99,0-1.77-.3-2.35-.91-.58-.61-.87-1.46-.87-2.56s.29-2.02,.88-2.64c.59-.63,1.35-.94,2.28-.94s1.64,.31,2.21,.92c.57,.62,.86,1.48,.86,2.59,0,.07,0,.17,0,.31h-5.04c.04,.74,.25,1.31,.63,1.7,.38,.39,.85,.59,1.41,.59,.42,0,.78-.11,1.07-.33,.3-.22,.53-.57,.71-1.06Zm-3.76-1.85h3.77c-.05-.57-.19-.99-.43-1.28-.37-.44-.84-.66-1.42-.66-.53,0-.97,.18-1.33,.53-.36,.35-.56,.82-.59,1.41Z"/>
        <path class="cls-1" d="M157.26,44.91l1.13-.18c.06,.45,.24,.8,.53,1.04,.29,.24,.7,.36,1.22,.36s.92-.11,1.17-.32c.25-.21,.38-.47,.38-.75,0-.26-.11-.46-.34-.61-.16-.1-.55-.23-1.17-.39-.84-.21-1.42-.4-1.74-.55-.32-.16-.57-.37-.74-.64-.17-.27-.25-.58-.25-.91,0-.3,.07-.58,.21-.84,.14-.26,.33-.47,.56-.64,.18-.13,.42-.24,.73-.33,.31-.09,.64-.14,.99-.14,.53,0,.99,.08,1.4,.23,.4,.15,.7,.36,.89,.62,.19,.26,.32,.61,.39,1.05l-1.12,.15c-.05-.35-.2-.62-.44-.81-.24-.19-.59-.29-1.03-.29-.52,0-.9,.09-1.12,.26-.23,.17-.34,.38-.34,.61,0,.15,.05,.28,.14,.4,.09,.12,.24,.22,.44,.31,.11,.04,.45,.14,1.01,.29,.81,.22,1.37,.39,1.7,.53,.32,.14,.57,.34,.75,.6,.18,.26,.27,.59,.27,.98s-.11,.74-.33,1.08c-.22,.34-.54,.6-.96,.78-.42,.18-.89,.28-1.42,.28-.88,0-1.55-.18-2.01-.55-.46-.37-.75-.9-.88-1.62Z"/>
        <path class="cls-1" d="M168.64,46.09c-.43,.36-.83,.61-1.23,.76-.39,.15-.81,.22-1.26,.22-.74,0-1.31-.18-1.71-.54-.4-.36-.6-.83-.6-1.39,0-.33,.07-.63,.23-.91,.15-.27,.35-.49,.59-.66,.24-.16,.52-.29,.82-.37,.23-.06,.56-.12,1.02-.17,.92-.11,1.6-.24,2.04-.39,0-.16,0-.26,0-.3,0-.47-.11-.79-.32-.99-.29-.26-.73-.39-1.3-.39-.54,0-.93,.09-1.19,.28s-.45,.52-.57,1l-1.12-.15c.1-.48,.27-.87,.5-1.16,.23-.29,.57-.52,1.01-.68,.44-.16,.95-.24,1.53-.24s1.05,.07,1.41,.2c.36,.14,.62,.31,.8,.51,.17,.21,.29,.46,.36,.78,.04,.2,.06,.55,.06,1.06v1.53c0,1.06,.02,1.74,.07,2.02,.05,.28,.15,.55,.29,.81h-1.2c-.12-.24-.19-.52-.23-.83Zm-.1-2.56c-.42,.17-1.04,.31-1.87,.43-.47,.07-.8,.14-1,.23-.19,.08-.35,.21-.45,.37-.11,.16-.16,.34-.16,.54,0,.31,.12,.56,.35,.76,.23,.2,.57,.31,1.01,.31s.83-.1,1.18-.29c.34-.19,.6-.46,.76-.79,.12-.26,.19-.64,.19-1.14v-.42Z"/>
        <path class="cls-1" d="M171.44,46.92v-9.32h1.15v9.32h-1.15Z"/>
        <path class="cls-1" d="M178.79,46.92v-.99c-.53,.76-1.24,1.14-2.14,1.14-.4,0-.77-.08-1.12-.23-.35-.15-.6-.34-.77-.57-.17-.23-.28-.51-.35-.85-.05-.22-.07-.58-.07-1.07v-4.18h1.15v3.75c0,.6,.02,1,.07,1.21,.07,.3,.22,.54,.46,.71,.23,.17,.52,.26,.87,.26s.67-.09,.97-.26c.3-.18,.51-.42,.64-.72,.13-.3,.19-.74,.19-1.32v-3.62h1.15v6.75h-1.02Z"/>
        <path class="cls-1" d="M185.99,46.92v-.85c-.43,.67-1.06,1-1.89,1-.54,0-1.03-.15-1.49-.44-.45-.3-.8-.71-1.05-1.24-.25-.53-.37-1.14-.37-1.83s.11-1.29,.34-1.83c.23-.55,.56-.97,1.01-1.26,.45-.29,.95-.44,1.51-.44,.41,0,.77,.09,1.09,.26,.32,.17,.57,.4,.77,.67v-3.34h1.14v9.32h-1.06Zm-3.62-3.37c0,.87,.18,1.51,.55,1.94,.37,.43,.8,.64,1.29,.64s.93-.2,1.28-.61c.35-.41,.52-1.03,.52-1.87,0-.92-.18-1.6-.53-2.03-.36-.43-.8-.65-1.32-.65s-.93,.21-1.27,.62c-.34,.42-.51,1.07-.51,1.96Z"/>
      </g>
    </g>
  </g>
</svg>