<?xml version="1.0" encoding="UTF-8"?>
<svg id="Layer_2" data-name="Layer 2" xmlns="http://www.w3.org/2000/svg" viewBox="0 0 29.57 39.24">
  <defs>
    <style>
      .cls-1 {
        fill: #fff;
      }

      .cls-2 {
        fill: #8d201a;
      }
    </style>
  </defs>
  <g id="Layer_1-2" data-name="Layer 1">
    <g>
      <polygon class="cls-1" points="29.57 39.24 28.9 39.24 .67 39.24 0 39.24 0 38.57 0 .68 0 0 .67 0 28.9 0 29.57 0 29.57 .68 29.57 38.57 29.57 39.24 29.57 39.24"/>
      <rect class="cls-2" x=".67" y=".68" width="28.23" height="37.89"/>
      <polygon class="cls-1" points="27.7 18.29 18.4 17.77 16.56 17.25 17.37 15.69 15.82 16.48 15.3 14.6 14.79 5.3 14.28 14.6 13.76 16.48 12.21 15.69 13.03 17.25 11.18 17.77 1.88 18.29 11.18 18.8 13.03 19.33 12.21 20.89 13.76 20.09 14.28 21.97 14.79 33.72 15.3 21.97 15.82 20.09 17.37 20.89 16.56 19.33 18.4 18.8 27.7 18.29"/>
    </g>
  </g>
</svg>