<?xml version="1.0" encoding="UTF-8"?>
<svg id="Layer_2" data-name="Layer 2" xmlns="http://www.w3.org/2000/svg" viewBox="0 0 12.99 8.66">
  <defs>
    <style>
      .cls-1 {
        fill: #757575;
      }
    </style>
  </defs>
  <g id="Layer_1-2" data-name="Layer 1">
    <path class="cls-1" d="M0,0H12.99V8.66H0V0ZM6.51,6.87c1.39,0,2.53-1.15,2.53-2.54,0-1.4-1.16-2.56-2.56-2.55-1.39,0-2.53,1.15-2.53,2.54,0,1.4,1.16,2.56,2.56,2.55ZM1.42,1.42v1.44c.79,.03,1.49-.68,1.4-1.44H1.42Zm8.73,.02c-.01,.81,.69,1.51,1.42,1.41V1.43h-1.42ZM1.43,5.8v1.42h1.43c-.02-.83-.67-1.46-1.43-1.42Zm8.71,1.42h1.45c0-.41,0-.8,0-1.19,0-.08-.01-.15-.02-.23-.77-.04-1.41,.59-1.43,1.42Z"/>
    <path class="cls-1" d="M7.46,5.66h-1.93v-.84c.17-.01,.32-.02,.5-.04v-1.07c-.11-.02-.21-.04-.33-.06v-.82h1.24v1.96c.19,.01,.34,.02,.52,.04v.84Z"/>
  </g>
</svg>