<?xml version="1.0" encoding="UTF-8"?>
<svg id="Layer_2" data-name="Layer 2" xmlns="http://www.w3.org/2000/svg" viewBox="0 0 12.99 13.7">
  <defs>
    <style>
      .cls-1 {
        fill: #757575;
      }
    </style>
  </defs>
  <g id="Layer_1-2" data-name="Layer 1">
    <path class="cls-1" d="M0,3.53q-.03-1.12,1.02-1.52C2.71,1.37,4.4,.71,6.1,.08c.21-.08,.49-.11,.68-.03,1.95,.73,3.9,1.5,5.85,2.24,.25,.1,.34,.23,.35,.5,.11,2.45-.41,4.75-1.66,6.87-1.1,1.87-2.68,3.18-4.67,4.01-.1,.04-.26,.03-.36-.02C2.85,12.18,.99,9.46,.22,5.91c-.1-.47-.16-.95-.21-1.43-.03-.31,0-.63,0-.94Zm6.48,6c.47-.47,.91-.92,1.35-1.36,.45-.46,.93-.89,1.34-1.37,.55-.65,.47-1.62-.13-2.21-.61-.61-1.57-.66-2.25-.12-.11,.09-.22,.18-.32,.27-.1-.08-.18-.16-.26-.23-.72-.59-1.68-.55-2.3,.08-.62,.63-.67,1.62-.05,2.3,.84,.9,1.73,1.75,2.62,2.65Z"/>
  </g>
</svg>